<?xml version="1.0" standalone="no"?>
<!DOCTYPE svg PUBLIC "-//W3C//DTD SVG 1.1//EN" "http://www.w3.org/Graphics/SVG/1.1/DTD/svg11.dtd" >
<svg xmlns="http://www.w3.org/2000/svg">
<metadata>
This is a custom SVG webfont generated by Font Squirrel.
Copyright   : Copyright c 2011 by Hannes von Doehren All rights reserved
Designer    : Hannes von Doehren
Foundry     : Hannes von Doehren
Foundry URL : httpwwwhvdfontscom
</metadata>
<defs>
<font id="PlutoBold" horiz-adv-x="1228" >
<font-face units-per-em="2048" ascent="1536" descent="-512" />
<missing-glyph horiz-adv-x="512" />
<glyph unicode=" "  horiz-adv-x="512" />
<glyph unicode="&#x09;" horiz-adv-x="512" />
<glyph unicode="&#xa0;" horiz-adv-x="512" />
<glyph unicode="!" horiz-adv-x="667" d="M133 166q0 94 52.5 146.5t148.5 52.5t150.5 -52.5t54.5 -146.5t-54.5 -144.5t-150.5 -50.5t-148.5 50.5t-52.5 144.5zM160 1393h346l-53 -879h-240z" />
<glyph unicode="&#x22;" horiz-adv-x="1009" d="M139 1393h269l-15 -533h-237zM600 1393h268l-14 -533h-240z" />
<glyph unicode="#" horiz-adv-x="1447" d="M88 307v217h215l84 330h-164v217h219l82 322h215v-25l-75 -297h297l81 322h215v-25l-75 -297h180v-217h-236l-82 -330h183v-217h-238l-76 -307h-219v27l72 280h-295l-76 -307h-219v27l72 280h-160zM526 524h295l84 330h-297z" />
<glyph unicode="$" d="M66 977q0 172 123.5 290.5t353.5 139.5v168h147v-166q262 -12 449 -109l-99 -305q-150 96 -350 117v-266l98 -29q193 -57 283 -149.5t90 -235.5q0 -182 -127 -303t-344 -143v-250h-147v246q-262 12 -455 118l80 312q174 -117 375 -136v283l-154 41q-323 88 -323 377z M416 1001q0 -43 29.5 -66.5t97.5 -43.5v219q-127 -21 -127 -109zM690 285q119 31 119 123q0 70 -119 108v-231z" />
<glyph unicode="%" horiz-adv-x="1875" d="M74 1030q0 164 109.5 273.5t277.5 109.5t279.5 -109.5t111.5 -273.5t-111.5 -271.5t-279.5 -107.5t-277.5 107.5t-109.5 271.5zM309 1030q0 -63 43 -108t108.5 -45t108.5 45t43 108q0 66 -43 111t-108.5 45t-108.5 -45t-43 -111zM451 0v27l731 1366h231v-25l-727 -1368 h-235zM1026 358.5q0 163.5 110.5 273t276.5 109.5q168 0 279.5 -109.5t111.5 -273t-111.5 -271t-279.5 -107.5t-277.5 107.5t-109.5 271zM1262 358q0 -63 43 -108t108.5 -45t108.5 45t43 108q0 66 -43 111t-108.5 45t-108.5 -45t-43 -111z" />
<glyph unicode="&#x26;" horiz-adv-x="1636" d="M96 387q0 131 75 216t222 145q-70 76 -104.5 143t-34.5 160q0 156 121 259t352 103q217 0 348 -98t131 -258q0 -270 -325 -389l206 -187q133 137 224 326l252 -184q-106 -195 -254 -342l268 -240v-49h-406l-108 104q-217 -117 -469 -116q-229 0 -363.5 109.5 t-134.5 297.5zM446 424q0 -72 54.5 -116t148.5 -44q100 0 195 43l-264 256q-134 -59 -134 -139zM582 1010q0 -70 104 -166l35 10q84 27 121 60.5t37 91.5q0 51 -40 83.5t-112 32.5t-108.5 -32.5t-36.5 -79.5z" />
<glyph unicode="'" horiz-adv-x="548" d="M139 1393h269l-15 -533h-237z" />
<glyph unicode="(" horiz-adv-x="688" d="M92 536.5q0 317.5 107.5 567.5t230.5 362l191 -106q-94 -145 -161 -358.5t-67 -466.5q0 -250 66.5 -463t161.5 -361l-191 -106q-123 113 -230.5 363.5t-107.5 568z" />
<glyph unicode=")" horiz-adv-x="688" d="M66 -289q94 145 161.5 359.5t67.5 464.5q0 254 -67.5 468t-161.5 357l192 106q123 -113 229.5 -361.5t106.5 -568t-106.5 -569.5t-229.5 -362z" />
<glyph unicode="*" horiz-adv-x="1126" d="M102 1104q0 61 44 101q29 26 72 27q22 0 46 -7q78 -25 217 -125q-39 117 -39 233q0 61 36 95t85 34t85 -32.5t36 -94.5q0 -84 -43 -221q145 94 238 113q17 3 31 3q49 0 78 -31q38 -40 38 -91q0 -100 -96 -121q-82 -16 -189 -16q-32 0 -67 2q135 -100 196 -193 q22 -37 23 -70q0 -29 -16 -57q-35 -59 -97 -59q-78 0 -114 55q-66 94 -101 236q-33 -113 -102 -221q-45 -68 -123 -68q-76 0 -103 70q-10 25 -10 49q0 43 31 82q63 78 174 159h-9q-92 0 -233 37q-88 25 -88 111z" />
<glyph unicode="+" d="M117 485v269h362v364h269v-364h364v-269h-364v-362h-269v362h-362z" />
<glyph unicode="," horiz-adv-x="634" d="M115 162q0 96 52 149.5t146.5 53.5t148.5 -54.5t54 -148.5q0 -115 -53 -260.5t-121 -255.5l-190 75l86 256q-123 38 -123 185z" />
<glyph unicode="-" horiz-adv-x="1130" d="M143 485v269h842v-269h-842z" />
<glyph unicode="." horiz-adv-x="636" d="M115 166q0 94 53 146.5t149.5 52.5t150.5 -52.5t54 -146.5t-54 -144.5t-150.5 -50.5t-149.5 50.5t-53 144.5z" />
<glyph unicode="/" horiz-adv-x="1042" d="M41 0v27l729 1366h234v-25l-728 -1368h-235z" />
<glyph unicode="0" horiz-adv-x="1488" d="M125 694q0 338 158.5 528.5t459.5 190.5q303 0 462 -190.5t159 -528.5q0 -336 -158.5 -525t-462.5 -189q-301 0 -459.5 190t-158.5 524zM459 694q0 -399 284 -399q287 0 287 399q0 406 -287 406q-284 0 -284 -406z" />
<glyph unicode="1" horiz-adv-x="1083" d="M27 1053l604 340h252v-1393h-344v1001l-383 -208z" />
<glyph unicode="2" horiz-adv-x="1370" d="M111 905q6 236 153.5 372t407.5 136t399 -132t139 -327q0 -139 -61.5 -249.5t-220.5 -223.5l-264 -182h579v-299h-1089v256l524 391q180 135 180 277q0 76 -50 126t-142 50q-121 0 -181.5 -68.5t-60.5 -185.5z" />
<glyph unicode="3" horiz-adv-x="1316" d="M104 1333q78 29 213.5 54.5t255.5 25.5q285 0 429.5 -99.5t144.5 -291.5q0 -104 -58.5 -185t-160.5 -110q137 -43 202.5 -125t65.5 -219q0 -188 -158.5 -295.5t-464.5 -107.5q-203 0 -462 81l82 285q184 -76 380 -76q123 0 196 45t73 121q0 137 -246 137h-305v279h305 q98 0 150.5 36t52.5 99q0 68 -60.5 101.5t-163.5 33.5q-195 0 -393 -80z" />
<glyph unicode="4" horiz-adv-x="1474" d="M90 250v225l604 918h447v-875h219v-268h-219v-250h-336v250h-715zM436 518h369v557z" />
<glyph unicode="5" horiz-adv-x="1312" d="M94 68l86 282q186 -80 381 -80q125 0 201 47.5t76 137.5q0 156 -252 155h-402l-14 15l68 768h907v-299h-621l-18 -232h100q584 0 584 -399q0 -240 -163 -361.5t-447 -121.5q-242 0 -486 88z" />
<glyph unicode="6" horiz-adv-x="1439" d="M123 698q0 326 171 520.5t480 194.5q274 0 488 -98l-91 -281q-176 88 -358 88q-297 0 -338 -307q147 106 344 107q246 0 377 -116t131 -325q0 -229 -155.5 -365t-401.5 -136q-307 0 -477 194t-170 524zM481 553q51 -260 289 -260q98 0 156.5 54t58.5 134q0 174 -219 174 q-148 0 -285 -102z" />
<glyph unicode="7" horiz-adv-x="1196" d="M76 1094v299h1057v-238l-543 -1155h-379v31l539 1063h-674z" />
<glyph unicode="8" horiz-adv-x="1456" d="M123 383q0 285 287 344q-113 25 -176.5 106.5t-63.5 188.5q0 190 141.5 290.5t415.5 100.5t415.5 -100.5t141.5 -290.5q0 -106 -63.5 -188t-173.5 -107q287 -59 286 -344q0 -186 -155.5 -294.5t-450.5 -108.5q-293 0 -448.5 108.5t-155.5 294.5zM471 428q0 -74 68.5 -120 t187.5 -46t188.5 46t69.5 120q0 70 -64.5 114t-191.5 44t-192.5 -44t-65.5 -114zM512 997q0 -63 53 -102t164 -39q109 0 161 39t52 102q0 139 -215 140q-102 0 -158.5 -36t-56.5 -104z" />
<glyph unicode="9" horiz-adv-x="1439" d="M111 911q0 229 156.5 365.5t404.5 136.5q307 0 475 -194.5t168 -524.5q0 -326 -169 -520t-478 -194q-147 0 -281.5 31.5t-210.5 66.5l92 280q176 -88 357 -88q297 0 338 305q-145 -104 -340 -104q-248 0 -380 115.5t-132 324.5zM455 911q0 -174 219 -174q150 0 282 103 q-51 260 -284 260q-100 0 -158.5 -54.5t-58.5 -134.5z" />
<glyph unicode=":" horiz-adv-x="677" d="M137 160q0 90 52.5 141t146.5 51t146.5 -51t52.5 -141q0 -92 -52.5 -141.5t-146.5 -49.5q-96 0 -147.5 49.5t-51.5 141.5zM137 909q0 90 52.5 141.5t146.5 51.5t146.5 -51.5t52.5 -141.5q0 -92 -52.5 -141t-146.5 -49q-96 0 -147.5 49t-51.5 141z" />
<glyph unicode=";" horiz-adv-x="665" d="M127 909q0 90 52 141.5t146.5 51.5t146.5 -51.5t52 -141.5q0 -92 -52 -141t-146 -49q-96 0 -147.5 49t-51.5 141zM141 154q0 94 51.5 145t141.5 51q92 0 144 -53t52 -143q0 -111 -52 -251.5t-116 -246.5l-184 74l82 245q-119 40 -119 179z" />
<glyph unicode="&#x3c;" d="M117 481v264l970 375h25v-258l-725 -244l725 -239v-262h-25z" />
<glyph unicode="=" d="M117 201v268h995v-268h-995zM117 770v268h995v-268h-995z" />
<glyph unicode="&#x3e;" d="M117 117v262l725 239l-725 244v258h24l971 -375v-264l-971 -364h-24z" />
<glyph unicode="?" horiz-adv-x="1021" d="M80 1284q178 129 428 129q197 0 310.5 -102.5t113.5 -266.5q0 -123 -48 -194.5t-132 -120.5l-119 -67q-63 -37 -64 -95q0 -23 6 -53h-278q-27 72 -27 143q0 104 117 172l115 70q43 27 62.5 53.5t19.5 67.5q0 51 -35 80.5t-92 29.5q-74 0 -157 -34.5t-134 -79.5zM236 166 q0 94 52 146.5t148 52.5t150.5 -52.5t54.5 -146.5t-54.5 -144.5t-150.5 -50.5t-148 50.5t-52 144.5z" />
<glyph unicode="@" horiz-adv-x="2011" d="M92 539q0 406 263 670t666.5 264t658.5 -230.5t255 -591.5q0 -313 -138 -470.5t-384 -157.5q-174 0 -233 122q-100 -121 -291 -120q-197 0 -318.5 139t-121.5 356q0 221 121.5 361.5t318.5 140.5q178 0 268 -102v86h330v-693q0 -53 15.5 -76.5t60.5 -23.5q74 0 135 111.5 t61 324.5q0 291 -201.5 472.5t-535.5 181.5q-340 0 -548 -211t-208 -553q0 -340 209 -554t547 -214q199 0 362 82l64 -156q-195 -94 -426 -94q-403 0 -666.5 266.5t-263.5 669.5zM784 520q0 -96 54.5 -153.5t146.5 -57.5q98 0 172 64v299q-72 63 -172 63q-94 0 -147.5 -58.5 t-53.5 -156.5z" />
<glyph unicode="A" horiz-adv-x="1513" d="M18 0l539 1393h404l528 -1393h-348l-94 256h-584l-96 -256h-349zM549 508h412l-201 545z" />
<glyph unicode="B" horiz-adv-x="1509" d="M193 0v1393h616q238 0 364.5 -93.5t126.5 -281.5q0 -207 -200 -293q311 -66 311 -348q0 -176 -132 -276.5t-376 -100.5h-710zM537 274h315q193 0 192 144q0 150 -208 149h-299v-293zM537 846h217q193 0 192 135q0 137 -188 137h-221v-272z" />
<glyph unicode="C" horiz-adv-x="1505" d="M113 694q0 332 201.5 525.5t519.5 193.5q268 0 415.5 -139t153.5 -387l-316 -66q-4 274 -258 275q-164 0 -262 -106.5t-98 -295.5q0 -186 101.5 -291.5t271.5 -105.5q225 0 403 164l160 -256q-100 -96 -254 -160.5t-317 -64.5q-315 0 -518 192t-203 522z" />
<glyph unicode="D" horiz-adv-x="1650" d="M193 0v1393h624q319 -2 519 -185.5t200 -513.5q0 -328 -199.5 -511t-519.5 -183h-624zM537 299h266q172 0 275.5 104.5t103.5 290.5q0 190 -103.5 295t-275.5 105h-266v-795z" />
<glyph unicode="E" horiz-adv-x="1431" d="M193 0v1393h1118v-299h-791v-240h641v-289h-641v-266h791v-299h-1118z" />
<glyph unicode="F" horiz-adv-x="1355" d="M193 0v1393h1077v-301h-750v-336h639v-301h-639v-455h-327z" />
<glyph unicode="G" horiz-adv-x="1585" d="M111 694q0 330 210.5 524.5t530.5 194.5q311 0 547 -186l-158 -260q-164 129 -381 129q-172 0 -282.5 -107.5t-110.5 -294t112.5 -292t294.5 -105.5q137 0 252 59v205h-333v262h659v-649q-98 -80 -271 -137t-329 -57q-319 0 -530 193t-211 521z" />
<glyph unicode="H" horiz-adv-x="1730" d="M193 0v1393h344v-539h657v539h344v-1393h-344v555h-657v-555h-344z" />
<glyph unicode="I" horiz-adv-x="727" d="M193 0v1393h344v-1393h-344z" />
<glyph unicode="J" horiz-adv-x="1347" d="M43 543l340 32q10 -143 59.5 -214.5t165.5 -71.5q119 0 168 74.5t49 220.5v809h344v-830q0 -268 -142 -427t-423 -159q-524 1 -561 566z" />
<glyph unicode="K" horiz-adv-x="1632" d="M193 1393h344v-559h239l348 559h355v-52l-447 -665q20 -25 93 -142.5t142.5 -187.5t145.5 -70q86 0 146 27l34 -270q-106 -53 -252 -53q-96 0 -181 43t-147.5 114.5t-108.5 141.5l-93 147q-47 78 -74 111h-200v-537h-344v1393z" />
<glyph unicode="L" horiz-adv-x="1280" d="M193 0v1393h344v-1094h692v-299h-1036z" />
<glyph unicode="M" horiz-adv-x="1968" d="M193 0v1393h296l496 -582l496 582h297v-1393h-344v852l-420 -504h-60l-417 504v-852h-344z" />
<glyph unicode="N" horiz-adv-x="1728" d="M193 0v1393h299l700 -846v846h344v-1393h-297l-702 846v-846h-344z" />
<glyph unicode="O" horiz-adv-x="1652" d="M109 694q0 309 204.5 514t509.5 205q309 0 514 -204.5t205 -514.5q0 -305 -204.5 -509.5t-514.5 -204.5q-305 0 -509.5 204.5t-204.5 509.5zM446 694q0 -166 108 -278.5t271 -112.5q168 0 273.5 111.5t105.5 279.5q0 170 -105.5 281.5t-273.5 111.5q-164 0 -271.5 -111.5 t-107.5 -281.5z" />
<glyph unicode="P" horiz-adv-x="1474" d="M193 0v1393h692q221 0 367.5 -132.5t146.5 -383.5q0 -231 -149.5 -369.5t-364.5 -138.5h-348v-369h-344zM537 668h292q92 0 152.5 58t60.5 153q0 98 -60 156.5t-153 58.5h-292v-426z" />
<glyph unicode="Q" horiz-adv-x="1654" d="M111 694q0 309 204.5 514t509.5 205q309 0 514 -204.5t205 -514.5q0 -211 -102.5 -379t-278.5 -256q51 -45 87 -69.5t92.5 -48t111.5 -23.5q127 0 197 27l32 -275q-113 -39 -256 -39q-111 0 -216 47.5t-169 102.5l-130 119q-67 63 -95 80q-303 4 -504.5 207.5 t-201.5 506.5zM446 694q0 -166 108 -278.5t271 -112.5q168 0 273.5 111.5t105.5 279.5q0 170 -105.5 281.5t-273.5 111.5q-164 0 -271.5 -111.5t-107.5 -281.5z" />
<glyph unicode="R" horiz-adv-x="1603" d="M193 1393h661q143 0 260 -45t196 -151.5t79 -262.5q0 -162 -101.5 -274.5t-263.5 -145.5q8 -8 27 -25l119 -107q42 -36 109 -71t122 -35q86 0 147 27l33 -270q-106 -53 -235 -53q-111 0 -225.5 65.5t-192.5 145.5l-171 178q-93 96 -147 133h-73v-502h-344v1393zM537 750 h311q84 0 134 47t50 125q0 80 -50 126t-134 46h-311v-344z" />
<glyph unicode="S" horiz-adv-x="1320" d="M115 977q0 190 147.5 312t421.5 122q141 0 278.5 -31.5t225.5 -79.5l-98 -305q-82 53 -198 87t-222 34q-205 0 -205 -115q0 -43 29.5 -66.5t97.5 -43.5l246 -74q193 -57 282.5 -149.5t89.5 -235.5q0 -203 -156.5 -327.5t-416.5 -124.5q-141 0 -280.5 37.5t-219.5 82.5 l80 312q84 -57 199.5 -97.5t226.5 -40.5q102 0 158.5 37t56.5 97q0 43 -40 71.5t-122 50.5l-260 70q-321 88 -321 377z" />
<glyph unicode="T" horiz-adv-x="1323" d="M68 1049v344h1187v-344h-415v-1049h-344v1049h-428z" />
<glyph unicode="U" horiz-adv-x="1650" d="M176 598v795h344v-772q0 -154 77 -239t224 -85q150 0 228.5 86t78.5 238v772h345v-795q0 -262 -173.5 -441.5t-478.5 -179.5t-475 171t-170 450z" />
<glyph unicode="V" horiz-adv-x="1542" d="M25 1393h376l367 -1065l377 1065h379l-537 -1393h-436z" />
<glyph unicode="W" horiz-adv-x="2285" d="M25 1393h370l373 -1008l229 559l-163 449h374l328 -951l354 951h377l-538 -1393h-375l-207 537l-221 -537h-375z" />
<glyph unicode="X" horiz-adv-x="1546" d="M57 0v27l473 667l-473 674v25h394l323 -475l324 475h391v-25l-475 -674l475 -667v-27h-395l-320 469l-319 -469h-398z" />
<glyph unicode="Y" horiz-adv-x="1419" d="M6 1368v25h385l318 -539l319 539h383v-25l-530 -829v-539h-344v537z" />
<glyph unicode="Z" horiz-adv-x="1359" d="M127 0v238l664 856h-664v299h1108v-238l-662 -856h662v-299h-1108z" />
<glyph unicode="[" horiz-adv-x="763" d="M168 -385v1839h512v-268h-242v-1303h242v-268h-512z" />
<glyph unicode="\" horiz-adv-x="1042" d="M41 1368v25h231l732 -1366v-27h-236z" />
<glyph unicode="]" horiz-adv-x="763" d="M84 -117h242v1303h-242v268h510v-1839h-510v268z" />
<glyph unicode="^" d="M98 774v27l385 592h252l387 -592v-27h-288l-226 375l-225 -375h-285z" />
<glyph unicode="_" horiz-adv-x="1460" d="M217 -63h1024v-240h-1024v240z" />
<glyph unicode="`" d="M377 1518h338l166 -324h-285z" />
<glyph unicode="a" horiz-adv-x="1476" d="M94 532q0 246 137.5 402t356.5 156q197 0 303 -113v94h344v-704q0 -98 65 -99q45 0 103 29l12 -272q-115 -45 -256 -45q-190 0 -244 153q-127 -152 -327 -151q-219 0 -356.5 154t-137.5 396zM444 532q0 -115 65.5 -184t176.5 -69q117 0 205 77v357q-78 78 -205 78 q-113 0 -177.5 -70t-64.5 -189z" />
<glyph unicode="b" horiz-adv-x="1394" d="M158 0v1454h344v-477q123 113 305 113q221 0 358.5 -155t137.5 -398.5t-138.5 -400t-357.5 -156.5q-193 0 -305 118v-98h-344zM502 356q86 -78 207 -77q111 0 177 69.5t66 188.5q0 117 -66.5 185.5t-176.5 68.5q-117 0 -207 -80v-355z" />
<glyph unicode="c" horiz-adv-x="1230" d="M92 532q0 248 157 408t410 160q231 0 357.5 -116t134.5 -310l-305 -68q-12 193 -184 193q-100 0 -158 -72t-58 -184q0 -117 69 -194t204 -77q70 0 150.5 34t136.5 79l131 -266q-188 -147 -459 -148q-291 0 -438.5 153.5t-147.5 407.5z" />
<glyph unicode="d" horiz-adv-x="1476" d="M92 536.5q0 243.5 138.5 398.5t355.5 155q184 0 305 -111v475h344v-1087q0 -98 65 -99q35 0 103 29l12 -272q-106 -45 -256 -45q-190 0 -244 145q-115 -145 -329 -145q-217 0 -355.5 156.5t-138.5 400zM442 537q0 -119 65.5 -188.5t178.5 -69.5q121 0 205 75v359 q-84 78 -205 78q-111 0 -177.5 -68.5t-66.5 -185.5z" />
<glyph unicode="e" horiz-adv-x="1239" d="M90 532q0 246 158 407t411 161q233 0 357.5 -126t124.5 -321q0 -133 -23 -204h-686q16 -96 84 -150.5t182 -54.5q80 0 166 30.5t142 71.5l127 -229q-178 -145 -455 -146q-291 0 -439.5 154.5t-148.5 406.5zM438 666h404v24q0 68 -46 108t-138.5 40t-150 -49t-69.5 -123z " />
<glyph unicode="f" horiz-adv-x="954" d="M78 760v266h184v59q0 168 97.5 279t285.5 111q150 0 279 -52l-60 -274q-82 45 -159 45q-98 0 -99 -111v-57h291v-266h-291v-760h-344v760h-184z" />
<glyph unicode="g" horiz-adv-x="1394" d="M94 573q0 217 138.5 367t355.5 150q193 0 305 -109v90h344v-924q0 -268 -156.5 -410.5t-406.5 -142.5q-37 0 -72 2.5t-67 7.5l-59 9q-26 4 -54.5 13l-46 14.5t-44 15.5t-34.5 14t-35 15l-24 12l71 274q180 -98 346 -98q238 0 238 203v88q-115 -102 -305 -103 q-215 0 -354.5 148.5t-139.5 363.5zM444 573q0 -96 65.5 -154.5t176.5 -58.5q117 0 207 80v269q-90 82 -207 82q-111 0 -176.5 -60t-65.5 -158z" />
<glyph unicode="h" horiz-adv-x="1439" d="M158 0v1454h344v-498q127 133 325 134q197 0 295.5 -131.5t98.5 -342.5v-249q0 -98 65 -99q37 0 105 29l10 -272q-111 -45 -254 -45q-133 0 -201.5 71.5t-68.5 231.5v276q0 102 -46.5 157.5t-134.5 55.5q-66 0 -117 -40t-77 -93v-639h-344z" />
<glyph unicode="i" horiz-adv-x="743" d="M139 1372.5q0 155.5 189 155.5q184 0 184 -155.5t-184 -155.5q-189 0 -189 155.5zM154 283v788h344v-704q0 -98 65 -99q29 0 61.5 11.5t39.5 17.5l14 -272q-4 -4 -39 -14.5t-96.5 -20.5t-120.5 -10q-268 0 -268 303z" />
<glyph unicode="j" horiz-adv-x="661" d="M-6 -195q166 113 166 293v973h344v-952q0 -354 -303 -522zM145 1372.5q0 155.5 189 155.5q184 0 184 -155.5t-184 -155.5q-189 0 -189 155.5z" />
<glyph unicode="k" horiz-adv-x="1345" d="M158 0v1454h344v-756q176 0 269 74t130 299h344q-45 -381 -268 -539l297 -475v-57h-369l-233 420q-80 -12 -170 -12v-408h-344z" />
<glyph unicode="l" horiz-adv-x="741" d="M150 287v1167h344v-1081q0 -104 71 -105q47 0 109 29l12 -272q-121 -45 -260 -45q-276 0 -276 307z" />
<glyph unicode="m" horiz-adv-x="2136" d="M158 0v1071h344v-106q127 127 323 127q252 0 334 -183q129 180 369 181q197 0 293 -131.5t96 -342.5v-249q0 -98 61 -99q43 0 105 29l14 -272q-111 -45 -258 -45q-266 0 -266 303v276q0 102 -46 157.5t-134 55.5q-125 0 -181 -115v-657h-344v561q0 211 -178 211 q-129 0 -188 -119v-653h-344z" />
<glyph unicode="n" horiz-adv-x="1439" d="M158 0v1071h344v-119q131 137 325 138q197 0 295.5 -131.5t98.5 -342.5v-249q0 -98 65 -99q43 0 105 29l10 -272q-104 -45 -254 -45q-133 0 -201.5 71.5t-68.5 231.5v276q0 102 -46.5 157.5t-134.5 55.5q-66 0 -117 -40t-77 -93v-639h-344z" />
<glyph unicode="o" horiz-adv-x="1331" d="M88 532q0 244 164 406t412 162q252 0 415.5 -161t163.5 -407q0 -242 -164 -401.5t-415 -159.5q-248 0 -412 159.5t-164 401.5zM420 532q0 -104 68.5 -176.5t175.5 -72.5q111 0 179 72.5t68 176.5q0 109 -68.5 181.5t-178.5 72.5q-106 0 -175 -72.5t-69 -181.5z" />
<glyph unicode="p" horiz-adv-x="1474" d="M61 1047q6 4 39 14t95.5 20.5t119.5 10.5q193 0 246 -146q115 143 328 144q219 0 357 -156t138 -402q0 -242 -138 -397t-357 -155q-186 0 -303 110v-475h-344v1087q0 98 -66 99q-31 0 -63.5 -10.5t-40.5 -18.5zM586 354q86 -76 205 -75q111 0 177 68.5t66 184.5 q0 119 -65.5 189t-177.5 70q-127 0 -205 -78v-359z" />
<glyph unicode="q" horiz-adv-x="1392" d="M94 532q0 246 137.5 402t356.5 156q186 0 303 -117v98h344v-1456h-344v475q-121 -111 -303 -110q-219 0 -356.5 155t-137.5 397zM444 532q0 -117 65.5 -185t176.5 -68q115 0 205 75v359q-82 78 -205 78q-113 0 -177.5 -70t-64.5 -189z" />
<glyph unicode="r" horiz-adv-x="1050" d="M61 1044q4 6 39 16.5t96.5 20t118.5 9.5q197 0 250 -158q84 158 260 158q68 0 125.5 -18.5t65.5 -33.5l-43 -313q-10 12 -72.5 29.5t-132.5 17.5q-162 0 -182 -213v-559h-344v702q0 98 -66 99q-59 0 -104 -27z" />
<glyph unicode="s" horiz-adv-x="1077" d="M96 731q0 162 131 260.5t355 98.5q102 0 217.5 -24t181.5 -54l-88 -275q-162 86 -320 86q-129 0 -129 -71q0 -29 19.5 -44.5t68.5 -27.5l191 -51q139 -39 197.5 -114t58.5 -189q0 -158 -119 -252t-328 -94q-238 0 -421 92l63 268q193 -100 334 -100q127 0 127 63 q0 43 -109 72l-170 47q-260 76 -260 309z" />
<glyph unicode="t" horiz-adv-x="1067" d="M57 805v266h193l43 272h291v-272h370v-266h-370v-373q0 -154 127 -153q100 0 200 71l105 -262q-176 -109 -416 -108q-170 0 -265 101t-95 292v432h-183z" />
<glyph unicode="u" horiz-adv-x="1449" d="M145 453v618h344v-569q0 -111 40 -160t141 -49q127 0 194 104v674h344v-704q0 -98 62 -99q43 0 104 29l12 -272q-98 -45 -256 -45q-184 0 -239 139q-123 -139 -352 -139q-199 0 -296.5 128t-97.5 345z" />
<glyph unicode="v" horiz-adv-x="1376" d="M39 1044q96 45 254 46q133 0 200.5 -72t67.5 -234v-278q0 -213 162 -213q90 0 141 60.5t51 176.5q0 244 -131 541h365q111 -291 111 -561q0 -242 -140.5 -386t-396.5 -144q-252 0 -379 124.5t-127 350.5v247q0 98 -63 99q-53 0 -105 -27z" />
<glyph unicode="w" horiz-adv-x="2023" d="M39 1047q129 43 264 43q260 0 260 -297v-287q0 -111 36 -162t116 -51q170 0 170 227v551h344v-571q0 -207 151 -207q90 0 137.5 66.5t47.5 179.5q0 236 -133 532h366q111 -291 111 -561q0 -242 -133.5 -386t-372.5 -144q-250 0 -356 180q-106 -180 -373 -180 q-227 0 -341 124.5t-114 350.5v247q0 98 -65 99q-70 0 -105 -29z" />
<glyph unicode="x" horiz-adv-x="1273" d="M61 0v27l336 505l-336 515v24h369l207 -344l209 344h366v-24l-338 -515l338 -505v-27h-370l-205 338l-203 -338h-373z" />
<glyph unicode="y" horiz-adv-x="1239" d="M8 1071h381l244 -696l246 696h346l-426 -1057q-90 -227 -194.5 -323.5t-289.5 -96.5q-139 0 -245 72l49 262q106 -55 190 -55q61 0 95 28.5t63 90.5l18 43z" />
<glyph unicode="z" horiz-adv-x="1110" d="M113 0v238l456 565h-456v268h884v-237l-450 -566h450v-268h-884z" />
<glyph unicode="{" horiz-adv-x="753" d="M70 430v199q115 0 167 34.5t52 108.5q0 70 -48 207t-48 215q0 260 344 260h116v-237h-82q-55 0 -82.5 -30t-27.5 -75q0 -47 48 -181t48 -208q0 -162 -178 -195q178 -33 178 -196q0 -74 -48 -207t-48 -182q0 -45 27.5 -75t82.5 -30h82v-237h-116q-344 0 -344 274 q0 76 48 216t48 214q0 68 -50 96.5t-169 28.5z" />
<glyph unicode="|" horiz-adv-x="606" d="M168 -385v1839h270v-1839h-270z" />
<glyph unicode="}" horiz-adv-x="751" d="M98 -162h84q55 0 83 30t28 75q0 49 -49 182t-49 207q0 164 180 196q-180 33 -180 195q0 74 49 208t49 181q0 45 -27.5 75t-83.5 30h-84v237h117q346 0 346 -260q0 -78 -49 -215t-49 -207q0 -74 51 -108.5t168 -34.5v-199q-119 0 -169 -28.5t-50 -96.5q0 -74 49 -214 t49 -216q0 -274 -346 -274h-117v237z" />
<glyph unicode="~" horiz-adv-x="1112" d="M109 612q27 78 97 133.5t159 55.5q92 0 205.5 -68.5t162.5 -68.5q102 0 164 114l109 -166q-31 -88 -104 -142t-159 -54q-82 0 -191.5 67.5t-174.5 67.5q-113 0 -164 -113z" />
<glyph unicode="&#xa1;" horiz-adv-x="638" d="M113 903q0 94 54 145.5t152 51.5q96 0 149.5 -51.5t53.5 -145.5t-53 -146t-149.5 -52t-151.5 52t-55 146zM147 -324l54 879h239l54 -879h-347z" />
<glyph unicode="&#xa2;" d="M86 532q0 248 156.5 408t410.5 160q10 0 27.5 -1t26.5 -1l63 225l154 -41l-60 -215q129 -45 201 -148.5t78 -244.5l-275 -58q-10 123 -82 175l-147 -531q20 -4 61 -4q158 0 306 121l124 -258q-188 -147 -460 -148q-55 0 -109 6l-72 -260l-151 41l70 254 q-162 61 -242 197.5t-80 322.5zM410 545q0 -143 84 -221l139 501q-100 -8 -161.5 -84.5t-61.5 -195.5z" />
<glyph unicode="&#xa3;" d="M49 215q0 98 60.5 157.5t156.5 59.5q43 0 90 -14q0 68 -39 211h-194v157h151q-27 125 -26 222q0 180 112.5 292.5t335.5 112.5q123 0 248 -45t191 -96l-97 -297q-47 39 -72.5 58.5t-83 43t-114.5 23.5q-88 0 -132 -48t-44 -130q0 -53 10 -136h354v-157h-331 q18 -125 18 -211q0 -31 -4 -84q6 -4 36 -22.5t44 -25.5t37.5 -16.5t42.5 -9.5q61 0 86.5 42t25.5 132v41h260q6 -55 7 -108q0 -180 -76 -283.5t-234 -103.5q-18 0 -35.5 2t-37 9t-32.5 11t-35 16l-31 18q-9 5 -33 22l-31 22q-6 4 -34 24.5t-32 24.5q-51 -78 -115.5 -113.5 t-170.5 -35.5q-109 0 -170.5 66.5t-61.5 168.5zM221 193q0 -51 47 -52q55 0 74 92q-20 16 -55 17q-31 0 -48.5 -16t-17.5 -41z" />
<glyph unicode="&#xa4;" horiz-adv-x="1189" d="M135 352l103 101q-41 72 -41 166t41 165l-103 105l193 190l108 -112q66 33 148 32q94 0 164 -38l114 118l193 -190l-117 -117q37 -70 37 -154q0 -78 -35 -153l115 -113l-193 -190l-114 114q-72 -37 -164 -36q-84 0 -148 30l-108 -108zM420 618.5q0 -69.5 47 -118.5 t117 -49q72 0 118 49t46 118.5t-46.5 118.5t-117.5 49q-70 0 -117 -49t-47 -118.5z" />
<glyph unicode="&#xa5;" d="M43 1368v25h352l211 -584l228 584h352v-25l-348 -709h229v-157h-289v-111h289v-155h-289v-236h-344v236h-289v155h289v111h-289v157h232z" />
<glyph unicode="&#xa6;" horiz-adv-x="624" d="M178 326h268v-711h-268v711zM178 768v686h268v-686h-268z" />
<glyph unicode="&#xa7;" horiz-adv-x="1331" d="M135 582q0 154 131 249q-129 74 -129 228q0 158 139.5 256t395.5 98q297 0 502 -88l-93 -276q-82 41 -211 71.5t-237 30.5q-164 0 -164 -64q0 -43 94 -61l273 -55q182 -39 272 -125t90 -205q0 -158 -137 -260q137 -80 137 -217q0 -160 -146.5 -260.5t-392.5 -100.5 q-147 0 -284 30t-219 67l77 280q86 -43 214 -75.5t243 -32.5q160 0 160 63q0 47 -141 76l-260 53q-314 68 -314 318zM453 623q0 -41 25.5 -66t90.5 -39l160 -35q61 6 98 39t37 78q0 49 -33.5 75.5t-105.5 41.5l-147 28q-61 -6 -93 -43.5t-32 -78.5z" />
<glyph unicode="&#xa8;" d="M193 1368q0 147 174 148q172 0 172 -148q0 -145 -172 -145q-174 0 -174 145zM719 1368q0 147 176 148q170 0 170 -148q0 -145 -170 -145q-176 0 -176 145z" />
<glyph unicode="&#xa9;" horiz-adv-x="1669" d="M117 694q0 309 204.5 514t509.5 205q309 0 514 -204.5t205 -514.5q0 -305 -204.5 -509.5t-514.5 -204.5q-305 0 -509.5 204.5t-204.5 509.5zM268 694q0 -246 160 -408.5t403 -162.5q248 0 409 163t161 408q0 248 -161 412t-409 164q-244 0 -403.5 -164t-159.5 -412z M479 694q0 166 101.5 262.5t259.5 96.5q133 0 206.5 -70t77.5 -192l-196 -46q-4 96 -90 97q-55 0 -90 -39t-35 -108.5t35.5 -108.5t97.5 -39q88 0 164 65l116 -163q-121 -113 -286 -113q-158 0 -259.5 96t-101.5 262z" />
<glyph unicode="&#xaa;" horiz-adv-x="1046" d="M145 868q0 127 114 183.5t296 56.5v25q0 47 -25.5 65.5t-78.5 18.5q-119 0 -205 -56l-41 197q143 49 295 49q160 0 222 -62.5t62 -189.5v-250q0 -63 43 -63q31 0 68 20l8 -178q-88 -33 -178 -33q-102 0 -143 82q-86 -82 -211 -82q-100 0 -163 57.5t-63 159.5zM199 336 v170h655v-170h-655zM365 893q0 -68 79 -68q66 0 111 33v123q-76 0 -133 -20.5t-57 -67.5z" />
<glyph unicode="&#xab;" horiz-adv-x="1185" d="M90 586v63l336 424h23l124 -59l-196 -396l196 -395l-124 -61h-23zM590 586v63l334 424h24l125 -59l-199 -396l199 -395l-125 -61h-24z" />
<glyph unicode="&#xac;" d="M115 608v269h997l-2 -631h-268v362h-727z" />
<glyph unicode="&#xad;" horiz-adv-x="1130" d="M143 485v269h842v-269h-842z" />
<glyph unicode="&#xae;" horiz-adv-x="1669" d="M117 694q0 309 204.5 514t509.5 205q309 0 514 -204.5t205 -514.5q0 -305 -204.5 -509.5t-514.5 -204.5q-305 0 -509.5 204.5t-204.5 509.5zM268 694q0 -246 160 -408.5t403 -162.5q248 0 409 163t161 408q0 248 -161 412t-409 164q-244 0 -403.5 -164t-159.5 -412z M530 346v696h359q113 0 184.5 -63.5t71.5 -175.5q0 -72 -41 -124t-109 -77q94 -66 154 -65q37 0 68 10l20 -185q-53 -27 -121 -26q-70 0 -131 31.5t-137 99.5t-88 76v-197h-230zM760 739h102q55 0 56 56q0 57 -56 57h-102v-113z" />
<glyph unicode="&#xaf;" d="M360 1239v213h535v-213h-535z" />
<glyph unicode="&#xb0;" horiz-adv-x="966" d="M94 1030q0 164 110.5 273.5t278.5 109.5t278.5 -109.5t110.5 -273.5t-110.5 -271.5t-278.5 -107.5t-278.5 107.5t-110.5 271.5zM317 1030q0 -70 47.5 -119t119 -49t117.5 49.5t46 118.5q0 72 -46 121t-117.5 49t-119 -49t-47.5 -121z" />
<glyph unicode="&#xb1;" d="M117 82v268h995v-268h-995zM117 719v268h362v363h269v-363h364v-268h-364v-221h-269v221h-362z" />
<glyph unicode="&#xb2;" horiz-adv-x="731" d="M72 1356q4 123 78.5 192.5t207.5 69.5q137 0 208 -66.5t71 -177.5q0 -135 -152 -237l-108 -76h276v-164h-559v139l262 197q88 66 88 133q0 35 -23.5 58.5t-64.5 23.5q-57 0 -86.5 -34t-29.5 -89z" />
<glyph unicode="&#xb3;" horiz-adv-x="702" d="M68 1579q102 39 237 39q297 0 297 -203q0 -51 -33.5 -92t-91.5 -55q147 -37 148 -174q0 -96 -81 -151.5t-239 -55.5q-109 0 -237 41l47 155q94 -39 190 -39q59 0 93 21.5t34 56.5q0 63 -119 64h-155v147h155q98 0 99 64q0 61 -107 61q-100 0 -199 -39z" />
<glyph unicode="&#xb4;" d="M377 1194l166 324h338l-219 -324h-285z" />
<glyph unicode="&#xb5;" horiz-adv-x="1382" d="M178 -385v1456h344v-506q0 -154 37 -213t143 -59q127 0 195 100v678h344v-1071h-344v92q-123 -113 -326 -112q-10 0 -25.5 1t-23.5 1v-367h-344z" />
<glyph unicode="&#xb6;" horiz-adv-x="1241" d="M66 768q0 141 88 221t227 82h340v-1456h-215v848h-125q-139 0 -227 80t-88 225zM879 -385v1456h215v-1456h-215z" />
<glyph unicode="&#xb7;" horiz-adv-x="659" d="M127 602q0 94 53 146.5t149.5 52.5t151 -52.5t54.5 -146.5t-54.5 -144t-151 -50t-149.5 50t-53 144z" />
<glyph unicode="&#xb8;" d="M410 -383l28 107q76 -23 127 -23q100 0 100.5 49t-100.5 49q-84 0 -129 -10l-8 12l61 199h134l-33 -109q25 4 47 5q86 0 133 -38t47 -102q0 -76 -67.5 -119t-174.5 -43q-89 0 -165 23z" />
<glyph unicode="&#xb9;" horiz-adv-x="587" d="M23 1430l309 176h137v-709h-188v498l-187 -105z" />
<glyph unicode="&#xba;" horiz-adv-x="1038" d="M131 1030q0 164 109.5 273.5t277.5 109.5t279.5 -109.5t111.5 -273.5t-111.5 -271.5t-279.5 -107.5t-277.5 107.5t-109.5 271.5zM193 336v170h653v-170h-653zM340 1030q0 -76 50 -128t128 -52t128 52t50 128t-50 129t-128 53t-128 -53t-50 -129z" />
<glyph unicode="&#xbb;" horiz-adv-x="1185" d="M113 1012l127 61h24l332 -424v-63l-332 -424h-24l-125 59l196 397zM612 1012l125 61h27l332 -424v-63l-332 -424h-27l-123 59l197 397z" />
<glyph unicode="&#xbc;" horiz-adv-x="1693" d="M61 1225l310 176h137v-709h-189v498l-186 -105zM322 0v27l755 1366h180v-25l-753 -1368h-182zM938 121v121l307 467l64 -2v2h186v-451h111v-137h-111v-121h-186v121h-371zM1124 258h185v283z" />
<glyph unicode="&#xbd;" horiz-adv-x="1693" d="M61 1217l310 176h137v-709h-189v498l-186 -105zM322 0v27l755 1366h180v-25l-753 -1368h-182zM1014 459q4 121 78.5 191.5t207.5 70.5q137 0 208 -66.5t71 -179.5q0 -133 -152 -237l-108 -74h276v-164h-559v139l262 197q88 63 88 133q0 35 -23.5 57.5t-64.5 22.5 q-117 0 -116 -123z" />
<glyph unicode="&#xbe;" horiz-adv-x="1769" d="M92 1374q102 39 238 39q297 0 297 -203q0 -51 -34 -92t-91 -55q147 -37 147 -174q0 -96 -81 -151.5t-238 -55.5q-109 0 -238 41l47 156q94 -39 191 -39q59 0 93 21.5t34 56.5q0 63 -119 63h-156v147h156q98 0 98 64q0 61 -106 61q-100 0 -199 -39zM410 0v27l755 1366h181 v-25l-754 -1368h-182zM1026 121v121l307 467l64 -2v2h186v-451h111v-137h-111v-121h-186v121h-371zM1212 258h185v283z" />
<glyph unicode="&#xbf;" horiz-adv-x="999" d="M78 25q0 123 48 194.5t132 120.5l119 68q63 37 63 94q0 23 -6 53h279q27 -72 26 -143q0 -104 -116 -172l-115 -70q-43 -27 -62.5 -53.5t-19.5 -67.5q0 -51 35 -80.5t92 -29.5q76 0 158 33.5t133 80.5l86 -268q-174 -129 -428 -129q-197 0 -310.5 102.5t-113.5 266.5z M369 903q0 94 53 145.5t151.5 51.5t150.5 -50.5t52 -146.5q0 -94 -52 -146t-151 -52q-96 0 -150 52t-54 146z" />
<glyph unicode="&#xc0;" horiz-adv-x="1513" d="M18 0l539 1393h404l528 -1393h-348l-94 256h-584l-96 -256h-349zM424 1839h338l166 -323h-285zM549 508h412l-201 545z" />
<glyph unicode="&#xc1;" horiz-adv-x="1513" d="M18 0l539 1393h404l528 -1393h-348l-94 256h-584l-96 -256h-349zM549 508h412l-201 545zM582 1516l166 323h337l-219 -323h-284z" />
<glyph unicode="&#xc2;" horiz-adv-x="1513" d="M18 0l539 1393h404l528 -1393h-348l-94 256h-584l-96 -256h-349zM383 1516l209 323h332l206 -323h-251l-121 159l-121 -159h-254zM549 508h412l-201 545z" />
<glyph unicode="&#xc3;" horiz-adv-x="1513" d="M18 0l539 1393h404l528 -1393h-348l-94 256h-584l-96 -256h-349zM360 1653q35 80 99.5 132t138.5 52q80 0 179.5 -59.5t140.5 -59.5q90 0 139 90l98 -112q-94 -184 -240 -185q-72 0 -176 58.5t-139 58.5q-86 0 -145 -90zM549 508h412l-201 545z" />
<glyph unicode="&#xc4;" horiz-adv-x="1513" d="M18 0l539 1393h404l528 -1393h-348l-94 256h-584l-96 -256h-349zM324 1690q0 147 174 147q172 0 172 -147q0 -145 -172 -146q-174 1 -174 146zM549 508h412l-201 545zM850 1690q0 147 176 147q170 0 170 -147q0 -145 -170 -146q-176 1 -176 146z" />
<glyph unicode="&#xc5;" horiz-adv-x="1513" d="M18 0l539 1393h25q-25 43 -25 98q0 82 59.5 141.5t141.5 59.5t141 -59.5t59 -141.5q0 -51 -26 -98h29l528 -1393h-348l-94 256h-584l-96 -256h-349zM549 508h412l-201 545zM680 1491q0 -33 22.5 -55.5t55.5 -22.5t54.5 22.5t21.5 55.5t-21.5 54.5t-54.5 21.5t-55.5 -21.5 t-22.5 -54.5z" />
<glyph unicode="&#xc6;" horiz-adv-x="2209" d="M-18 0l774 1393h1333v-301h-789v-244h639v-277h-639v-272h789v-299h-1118v256h-484l-141 -256h-364zM612 508h359v663z" />
<glyph unicode="&#xc7;" horiz-adv-x="1505" d="M113 694q0 332 201.5 525.5t519.5 193.5q268 0 415.5 -139t153.5 -387l-316 -66q-4 274 -258 275q-164 0 -262 -106.5t-98 -295.5q0 -186 101.5 -291.5t271.5 -105.5q225 0 403 164l160 -256q-100 -96 -254 -160.5t-317 -64.5h-17l-26 -89q25 4 47 5q86 0 133 -38 t47 -102q0 -76 -67.5 -119t-174.5 -43q-90 0 -166 23l29 107q76 -23 127 -23q100 0 100 49t-100 49q-84 0 -129 -10l-8 12l57 191q-258 43 -415.5 228t-157.5 474z" />
<glyph unicode="&#xc8;" horiz-adv-x="1431" d="M193 0v1393h1118v-299h-791v-240h641v-289h-641v-266h791v-299h-1118zM416 1839h338l166 -323h-285z" />
<glyph unicode="&#xc9;" horiz-adv-x="1431" d="M193 0v1393h1118v-299h-791v-240h641v-289h-641v-266h791v-299h-1118zM578 1516l165 323h338l-219 -323h-284z" />
<glyph unicode="&#xca;" horiz-adv-x="1431" d="M193 0v1393h1118v-299h-791v-240h641v-289h-641v-266h791v-299h-1118zM377 1516l209 323h332l206 -323h-252l-120 159l-121 -159h-254z" />
<glyph unicode="&#xcb;" horiz-adv-x="1431" d="M193 0v1393h1118v-299h-791v-240h641v-289h-641v-266h791v-299h-1118zM315 1690q0 147 174 147q172 0 173 -147q0 -145 -173 -146q-174 1 -174 146zM842 1690q0 147 176 147q170 0 170 -147q0 -145 -170 -146q-176 1 -176 146z" />
<glyph unicode="&#xcc;" horiz-adv-x="727" d="M16 1839h338l166 -323h-284zM193 0v1393h344v-1393h-344z" />
<glyph unicode="&#xcd;" horiz-adv-x="727" d="M193 0v1393h344v-1393h-344zM207 1516l166 323h338l-219 -323h-285z" />
<glyph unicode="&#xce;" horiz-adv-x="727" d="M-12 1516l209 323h331l207 -323h-252l-121 159l-120 -159h-254zM193 0v1393h344v-1393h-344z" />
<glyph unicode="&#xcf;" horiz-adv-x="727" d="M-74 1690q0 147 174 147q172 0 172 -147q0 -145 -172 -146q-174 1 -174 146zM193 0v1393h344v-1393h-344zM453 1690q0 147 176 147q170 0 170 -147q0 -145 -170 -146q-176 1 -176 146z" />
<glyph unicode="&#xd0;" horiz-adv-x="1654" d="M68 582v221h127v590h626q319 -2 519 -185.5t200 -513.5q0 -328 -199.5 -511t-519.5 -183h-626v582h-127zM539 299h268q172 0 276.5 104.5t104.5 290.5q0 188 -104.5 294t-276.5 106h-268v-291h243v-221h-243v-283z" />
<glyph unicode="&#xd1;" horiz-adv-x="1728" d="M193 0v1393h299l700 -846v846h344v-1393h-297l-702 846v-846h-344zM471 1653q35 80 99.5 132t138.5 52q80 0 179 -59.5t140 -59.5q90 0 139 90l99 -112q-94 -184 -240 -185q-72 0 -176.5 58.5t-138.5 58.5q-86 0 -146 -90z" />
<glyph unicode="&#xd2;" horiz-adv-x="1652" d="M109 694q0 309 204.5 514t509.5 205q309 0 514 -204.5t205 -514.5q0 -305 -204.5 -509.5t-514.5 -204.5q-305 0 -509.5 204.5t-204.5 509.5zM446 694q0 -166 108 -278.5t271 -112.5q168 0 273.5 111.5t105.5 279.5q0 170 -105.5 281.5t-273.5 111.5q-164 0 -271.5 -111.5 t-107.5 -281.5zM475 1839h338l166 -323h-285z" />
<glyph unicode="&#xd3;" horiz-adv-x="1652" d="M109 694q0 309 204.5 514t509.5 205q309 0 514 -204.5t205 -514.5q0 -305 -204.5 -509.5t-514.5 -204.5q-305 0 -509.5 204.5t-204.5 509.5zM446 694q0 -166 108 -278.5t271 -112.5q168 0 273.5 111.5t105.5 279.5q0 170 -105.5 281.5t-273.5 111.5q-164 0 -271.5 -111.5 t-107.5 -281.5zM670 1516l166 323h338l-220 -323h-284z" />
<glyph unicode="&#xd4;" horiz-adv-x="1652" d="M109 694q0 309 204.5 514t509.5 205q309 0 514 -204.5t205 -514.5q0 -305 -204.5 -509.5t-514.5 -204.5q-305 0 -509.5 204.5t-204.5 509.5zM446 694q0 -166 108 -278.5t271 -112.5q168 0 273.5 111.5t105.5 279.5q0 170 -105.5 281.5t-273.5 111.5q-164 0 -271.5 -111.5 t-107.5 -281.5zM449 1516l208 323h332l207 -323h-252l-121 159l-121 -159h-253z" />
<glyph unicode="&#xd5;" horiz-adv-x="1652" d="M109 694q0 309 204.5 514t509.5 205q309 0 514 -204.5t205 -514.5q0 -305 -204.5 -509.5t-514.5 -204.5q-305 0 -509.5 204.5t-204.5 509.5zM426 1653q35 80 99.5 132t138.5 52q80 0 179 -59.5t140 -59.5q90 0 139 90l99 -112q-94 -184 -240 -185q-72 0 -176.5 58.5 t-138.5 58.5q-86 0 -146 -90zM446 694q0 -166 108 -278.5t271 -112.5q168 0 273.5 111.5t105.5 279.5q0 170 -105.5 281.5t-273.5 111.5q-164 0 -271.5 -111.5t-107.5 -281.5z" />
<glyph unicode="&#xd6;" horiz-adv-x="1652" d="M109 694q0 309 204.5 514t509.5 205q309 0 514 -204.5t205 -514.5q0 -305 -204.5 -509.5t-514.5 -204.5q-305 0 -509.5 204.5t-204.5 509.5zM387 1690q0 147 174 147q172 0 172 -147q0 -145 -172 -146q-174 1 -174 146zM446 694q0 -166 108 -278.5t271 -112.5 q168 0 273.5 111.5t105.5 279.5q0 170 -105.5 281.5t-273.5 111.5q-164 0 -271.5 -111.5t-107.5 -281.5zM913 1690q0 147 177 147q170 0 170 -147q0 -145 -170 -146q-177 1 -177 146z" />
<glyph unicode="&#xd7;" d="M166 365l258 256l-258 256l192 190l256 -258l256 258l191 -190l-258 -256l258 -256l-191 -193l-256 258l-256 -258z" />
<glyph unicode="&#xd8;" horiz-adv-x="1652" d="M109 694q0 309 204.5 514t509.5 205q217 0 396 -110l73 90h205v-25l-143 -178q188 -205 188 -496q0 -305 -204.5 -509.5t-514.5 -204.5q-207 0 -374 98l-64 -78h-209v27l133 161q-200 205 -200 506zM442 694q0 -141 78 -245l490 598q-86 45 -187 45q-164 0 -272.5 -114 t-108.5 -284zM657 336q74 -37 166 -37q168 0 276.5 113.5t108.5 281.5q0 135 -69 234z" />
<glyph unicode="&#xd9;" horiz-adv-x="1650" d="M176 598v795h344v-772q0 -154 77 -239t224 -85q150 0 228.5 86t78.5 238v772h345v-795q0 -262 -173.5 -441.5t-478.5 -179.5t-475 171t-170 450zM475 1839h338l166 -323h-285z" />
<glyph unicode="&#xda;" horiz-adv-x="1650" d="M176 598v795h344v-772q0 -154 77 -239t224 -85q150 0 228.5 86t78.5 238v772h345v-795q0 -262 -173.5 -441.5t-478.5 -179.5t-475 171t-170 450zM668 1516l166 323h337l-219 -323h-284z" />
<glyph unicode="&#xdb;" horiz-adv-x="1650" d="M176 598v795h344v-772q0 -154 77 -239t224 -85q150 0 228.5 86t78.5 238v772h345v-795q0 -262 -173.5 -441.5t-478.5 -179.5t-475 171t-170 450zM449 1516l208 323h332l207 -323h-252l-121 159l-121 -159h-253z" />
<glyph unicode="&#xdc;" horiz-adv-x="1650" d="M176 598v795h344v-772q0 -154 77 -239t224 -85q150 0 228.5 86t78.5 238v772h345v-795q0 -262 -173.5 -441.5t-478.5 -179.5t-475 171t-170 450zM387 1690q0 147 174 147q172 0 172 -147q0 -145 -172 -146q-174 1 -174 146zM913 1690q0 147 177 147q170 0 170 -147 q0 -145 -170 -146q-177 1 -177 146z" />
<glyph unicode="&#xdd;" horiz-adv-x="1419" d="M6 1368v25h385l318 -539l319 539h383v-25l-530 -829v-539h-344v537zM553 1516l166 323h338l-219 -323h-285z" />
<glyph unicode="&#xde;" horiz-adv-x="1480" d="M193 0v1393h344v-181h348q223 0 368.5 -128t145.5 -377q0 -231 -148.5 -364.5t-365.5 -133.5h-348v-209h-344zM537 508h297q94 0 153.5 54t59.5 149q0 96 -59.5 149t-153.5 53h-297v-405z" />
<glyph unicode="&#xdf;" horiz-adv-x="1441" d="M158 0v870q0 160 48 280t132 188.5t185.5 102.5t217.5 34q246 0 375 -131.5t129 -296.5q0 -63 -19.5 -121t-43 -88.5t-43 -59t-19.5 -41.5q0 -14 37 -52l80 -81q43 -43 80 -115.5t37 -150.5q0 -176 -106.5 -267t-289.5 -91q-160 0 -309 53l49 276q74 -41 154 -41 q61 0 96 29t35 76q0 53 -58 113l-117 116q-58 55 -58 94q0 49 71.5 141.5t71.5 178.5q0 72 -50 116t-132 44q-102 0 -155.5 -75t-53.5 -204v-897h-344z" />
<glyph unicode="&#xe0;" horiz-adv-x="1476" d="M94 532q0 246 137.5 402t356.5 156q197 0 303 -113v94h344v-704q0 -98 65 -99q45 0 103 29l12 -272q-115 -45 -256 -45q-190 0 -244 153q-127 -152 -327 -151q-219 0 -356.5 154t-137.5 396zM391 1518h338l166 -324h-285zM444 532q0 -115 65.5 -184t176.5 -69 q117 0 205 77v357q-78 78 -205 78q-113 0 -177.5 -70t-64.5 -189z" />
<glyph unicode="&#xe1;" horiz-adv-x="1476" d="M94 532q0 246 137.5 402t356.5 156q197 0 303 -113v94h344v-704q0 -98 65 -99q45 0 103 29l12 -272q-115 -45 -256 -45q-190 0 -244 153q-127 -152 -327 -151q-219 0 -356.5 154t-137.5 396zM444 532q0 -115 65.5 -184t176.5 -69q117 0 205 77v357q-78 78 -205 78 q-113 0 -177.5 -70t-64.5 -189zM559 1194l166 324h338l-219 -324h-285z" />
<glyph unicode="&#xe2;" horiz-adv-x="1476" d="M94 532q0 246 137.5 402t356.5 156q197 0 303 -113v94h344v-704q0 -98 65 -99q45 0 103 29l12 -272q-115 -45 -256 -45q-190 0 -244 153q-127 -152 -327 -151q-219 0 -356.5 154t-137.5 396zM340 1194l209 324h332l206 -324h-251l-121 160l-121 -160h-254zM444 532 q0 -115 65.5 -184t176.5 -69q117 0 205 77v357q-78 78 -205 78q-113 0 -177.5 -70t-64.5 -189z" />
<glyph unicode="&#xe3;" horiz-adv-x="1476" d="M94 532q0 246 137.5 402t356.5 156q197 0 303 -113v94h344v-704q0 -98 65 -99q45 0 103 29l12 -272q-115 -45 -256 -45q-190 0 -244 153q-127 -152 -327 -151q-219 0 -356.5 154t-137.5 396zM334 1331q35 80 99.5 132.5t137.5 52.5q80 0 179.5 -59.5t140.5 -59.5 q90 0 139 90l98 -113q-94 -184 -239 -184q-74 0 -176.5 58.5t-139.5 58.5q-86 0 -145 -90zM444 532q0 -115 65.5 -184t176.5 -69q117 0 205 77v357q-78 78 -205 78q-113 0 -177.5 -70t-64.5 -189z" />
<glyph unicode="&#xe4;" horiz-adv-x="1476" d="M94 532q0 246 137.5 402t356.5 156q197 0 303 -113v94h344v-704q0 -98 65 -99q45 0 103 29l12 -272q-115 -45 -256 -45q-190 0 -244 153q-127 -152 -327 -151q-219 0 -356.5 154t-137.5 396zM299 1368q0 147 174 148q172 0 172 -148q0 -145 -172 -145q-174 0 -174 145z M444 532q0 -115 65.5 -184t176.5 -69q117 0 205 77v357q-78 78 -205 78q-113 0 -177.5 -70t-64.5 -189zM825 1368q0 147 176 148q170 0 170 -148q0 -145 -170 -145q-176 0 -176 145z" />
<glyph unicode="&#xe5;" horiz-adv-x="1476" d="M94 532q0 246 137.5 402t356.5 156q197 0 303 -113v94h344v-704q0 -98 65 -99q45 0 103 29l12 -272q-115 -45 -256 -45q-190 0 -244 153q-127 -152 -327 -151q-219 0 -356.5 154t-137.5 396zM444 532q0 -115 65.5 -184t176.5 -69q117 0 205 77v357q-78 78 -205 78 q-113 0 -177.5 -70t-64.5 -189zM520 1372q0 82 59.5 141.5t141.5 59.5t141.5 -59.5t59.5 -141.5t-59.5 -141.5t-141.5 -59.5t-141.5 59.5t-59.5 141.5zM643 1372q0 -33 22.5 -55.5t55.5 -22.5t54.5 22.5t21.5 55.5t-21.5 54.5t-54.5 21.5t-55.5 -21.5t-22.5 -54.5z" />
<glyph unicode="&#xe6;" horiz-adv-x="1855" d="M78 297q0 174 132 273.5t396 99.5q49 0 111 -4q0 86 -34 118.5t-118 32.5t-184 -23.5t-156 -54.5l-59 289q209 72 446 72q145 0 219 -40t115 -112q121 152 338 152q236 0 354.5 -126t118.5 -321q0 -141 -20 -204h-672q16 -205 268 -205q72 0 153 30.5t136 71.5l127 -229 q-178 -145 -451 -146q-285 0 -405 162q-193 -164 -436 -164q-176 0 -277.5 90.5t-101.5 237.5zM422 328q0 -94 127 -95q92 0 166 62v143q-92 6 -113 6q-180 -14 -180 -116zM1081 664h387v16q0 74 -46 116t-138 42q-86 0 -141.5 -48t-61.5 -126z" />
<glyph unicode="&#xe7;" horiz-adv-x="1230" d="M94 532q0 248 157 408t411 160q231 0 357 -116t134 -310l-305 -68q-12 193 -184 193q-100 0 -157.5 -72t-57.5 -184q0 -117 68.5 -194t203.5 -77q70 0 150.5 34t136.5 79l131 -266q-188 -147 -459 -148h-4l-25 -80q25 4 47 5q86 0 133.5 -38t47.5 -102q0 -76 -68 -119 t-174 -43q-90 0 -166 23l29 107q76 -23 127 -23q100 0 100 49t-100 49q-84 0 -129 -10l-9 12l56 181q-225 35 -338 181t-113 369z" />
<glyph unicode="&#xe8;" horiz-adv-x="1239" d="M90 532q0 246 158 407t411 161q233 0 357.5 -126t124.5 -321q0 -133 -23 -204h-686q16 -96 84 -150.5t182 -54.5q80 0 166 30.5t142 71.5l127 -229q-178 -145 -455 -146q-291 0 -439.5 154.5t-148.5 406.5zM344 1518h338l166 -324h-285zM438 666h404v24q0 68 -46 108 t-138.5 40t-150 -49t-69.5 -123z" />
<glyph unicode="&#xe9;" horiz-adv-x="1239" d="M90 532q0 246 158 407t411 161q233 0 357.5 -126t124.5 -321q0 -133 -23 -204h-686q16 -96 84 -150.5t182 -54.5q80 0 166 30.5t142 71.5l127 -229q-178 -145 -455 -146q-291 0 -439.5 154.5t-148.5 406.5zM438 666h404v24q0 68 -46 108t-138.5 40t-150 -49t-69.5 -123z M498 1194l166 324h337l-219 -324h-284z" />
<glyph unicode="&#xea;" horiz-adv-x="1239" d="M90 532q0 246 158 407t411 161q233 0 357.5 -126t124.5 -321q0 -133 -23 -204h-686q16 -96 84 -150.5t182 -54.5q80 0 166 30.5t142 71.5l127 -229q-178 -145 -455 -146q-291 0 -439.5 154.5t-148.5 406.5zM291 1194l209 324h331l207 -324h-252l-120 160l-121 -160h-254z M438 666h404v24q0 68 -46 108t-138.5 40t-150 -49t-69.5 -123z" />
<glyph unicode="&#xeb;" horiz-adv-x="1239" d="M90 532q0 246 158 407t411 161q233 0 357.5 -126t124.5 -321q0 -133 -23 -204h-686q16 -96 84 -150.5t182 -54.5q80 0 166 30.5t142 71.5l127 -229q-178 -145 -455 -146q-291 0 -439.5 154.5t-148.5 406.5zM227 1368q0 147 174 148q172 0 172 -148q0 -145 -172 -145 q-174 0 -174 145zM438 666h404v24q0 68 -46 108t-138.5 40t-150 -49t-69.5 -123zM754 1368q0 147 176 148q170 0 170 -148q0 -145 -170 -145q-176 0 -176 145z" />
<glyph unicode="&#xec;" horiz-adv-x="743" d="M2 1518h338l166 -324h-285zM154 283v788h344v-704q0 -98 65 -99q29 0 61.5 11.5t39.5 17.5l14 -272q-4 -4 -39 -14.5t-96.5 -20.5t-120.5 -10q-268 0 -268 303z" />
<glyph unicode="&#xed;" horiz-adv-x="743" d="M154 283v788h344v-704q0 -98 65 -99q29 0 61.5 11.5t39.5 17.5l14 -272q-4 -4 -39 -14.5t-96.5 -20.5t-120.5 -10q-268 0 -268 303zM162 1194l166 324h338l-220 -324h-284z" />
<glyph unicode="&#xee;" horiz-adv-x="743" d="M-49 1194l209 324h332l206 -324h-252l-120 160l-121 -160h-254zM154 283v788h344v-704q0 -98 65 -99q29 0 61.5 11.5t39.5 17.5l14 -272q-4 -4 -39 -14.5t-96.5 -20.5t-120.5 -10q-268 0 -268 303z" />
<glyph unicode="&#xef;" horiz-adv-x="743" d="M-109 1368q0 147 175 148q172 0 172 -148q0 -145 -172 -145q-175 0 -175 145zM154 283v788h344v-704q0 -98 65 -99q29 0 61.5 11.5t39.5 17.5l14 -272q-4 -4 -39 -14.5t-96.5 -20.5t-120.5 -10q-268 0 -268 303zM418 1368q0 147 176 148q170 0 170 -148q0 -145 -170 -145 q-176 0 -176 145z" />
<glyph unicode="&#xf0;" horiz-adv-x="1280" d="M76 481q0 193 114.5 317t315.5 124q162 0 297 -107q-35 178 -166 303l-94 -100l-86 72l94 100q-61 43 -141 72l135 213q102 -18 203 -72l92 98l90 -71l-84 -89q143 -109 229 -274.5t86 -368.5q0 -330 -151.5 -524t-429.5 -194q-223 0 -363.5 136t-140.5 365zM418 477 q0 -78 46 -131t128 -53q184 0 215 268q-111 94 -217 94q-80 0 -126 -47t-46 -131z" />
<glyph unicode="&#xf1;" horiz-adv-x="1439" d="M158 0v1071h344v-119q131 137 325 138q197 0 295.5 -131.5t98.5 -342.5v-249q0 -98 65 -99q43 0 105 29l10 -272q-104 -45 -254 -45q-133 0 -201.5 71.5t-68.5 231.5v276q0 102 -46.5 157.5t-134.5 55.5q-66 0 -117 -40t-77 -93v-639h-344zM307 1331q35 80 99.5 132.5 t138.5 52.5q80 0 179 -59.5t140 -59.5q90 0 140 90l98 -113q-94 -184 -240 -184q-72 0 -176 58.5t-139 58.5q-86 0 -146 -90z" />
<glyph unicode="&#xf2;" horiz-adv-x="1331" d="M88 532q0 244 164 406t412 162q252 0 415.5 -161t163.5 -407q0 -242 -164 -401.5t-415 -159.5q-248 0 -412 159.5t-164 401.5zM315 1518h338l166 -324h-284zM420 532q0 -104 68.5 -176.5t175.5 -72.5q111 0 179 72.5t68 176.5q0 109 -68.5 181.5t-178.5 72.5 q-106 0 -175 -72.5t-69 -181.5z" />
<glyph unicode="&#xf3;" horiz-adv-x="1331" d="M88 532q0 244 164 406t412 162q252 0 415.5 -161t163.5 -407q0 -242 -164 -401.5t-415 -159.5q-248 0 -412 159.5t-164 401.5zM420 532q0 -104 68.5 -176.5t175.5 -72.5q111 0 179 72.5t68 176.5q0 109 -68.5 181.5t-178.5 72.5q-106 0 -175 -72.5t-69 -181.5zM510 1194 l166 324h338l-219 -324h-285z" />
<glyph unicode="&#xf4;" horiz-adv-x="1331" d="M88 532q0 244 164 406t412 162q252 0 415.5 -161t163.5 -407q0 -242 -164 -401.5t-415 -159.5q-248 0 -412 159.5t-164 401.5zM289 1194l209 324h331l207 -324h-252l-120 160l-121 -160h-254zM420 532q0 -104 68.5 -176.5t175.5 -72.5q111 0 179 72.5t68 176.5 q0 109 -68.5 181.5t-178.5 72.5q-106 0 -175 -72.5t-69 -181.5z" />
<glyph unicode="&#xf5;" horiz-adv-x="1331" d="M88 532q0 244 164 406t412 162q252 0 415.5 -161t163.5 -407q0 -242 -164 -401.5t-415 -159.5q-248 0 -412 159.5t-164 401.5zM266 1331q35 80 99.5 132.5t138.5 52.5q80 0 179 -59.5t140 -59.5q90 0 140 90l98 -113q-94 -184 -240 -184q-72 0 -176 58.5t-139 58.5 q-86 0 -146 -90zM420 532q0 -104 68.5 -176.5t175.5 -72.5q111 0 179 72.5t68 176.5q0 109 -68.5 181.5t-178.5 72.5q-106 0 -175 -72.5t-69 -181.5z" />
<glyph unicode="&#xf6;" horiz-adv-x="1331" d="M88 532q0 244 164 406t412 162q252 0 415.5 -161t163.5 -407q0 -242 -164 -401.5t-415 -159.5q-248 0 -412 159.5t-164 401.5zM227 1368q0 147 174 148q172 0 172 -148q0 -145 -172 -145q-174 0 -174 145zM420 532q0 -104 68.5 -176.5t175.5 -72.5q111 0 179 72.5 t68 176.5q0 109 -68.5 181.5t-178.5 72.5q-106 0 -175 -72.5t-69 -181.5zM754 1368q0 147 176 148q170 0 170 -148q0 -145 -170 -145q-176 0 -176 145z" />
<glyph unicode="&#xf7;" d="M117 485v269h995v-269h-995zM436 207q0 82 47 127t131 45t132.5 -45t48.5 -127q0 -84 -47.5 -129t-133.5 -45q-84 0 -131 45t-47 129zM436 1030q0 82 47 128t131 46t132.5 -46t48.5 -128t-47.5 -127t-133.5 -45q-84 0 -131 45t-47 127z" />
<glyph unicode="&#xf8;" horiz-adv-x="1331" d="M88 532q0 244 164 406t412 162q180 0 327 -92l53 63h140v-24l-97 -117q156 -160 156 -398q0 -242 -164 -401.5t-415 -159.5q-168 0 -306 78l-41 -49h-145v27l84 100q-168 157 -168 405zM420 532q0 -88 47 -153l315 379q-53 29 -118 28q-106 0 -175 -72.5t-69 -181.5z M565 301q43 -18 99 -18q111 0 179 72.5t68 176.5q0 78 -39 140z" />
<glyph unicode="&#xf9;" horiz-adv-x="1449" d="M145 453v618h344v-569q0 -111 40 -160t141 -49q127 0 194 104v674h344v-704q0 -98 62 -99q43 0 104 29l12 -272q-98 -45 -256 -45q-184 0 -239 139q-123 -139 -352 -139q-199 0 -296.5 128t-97.5 345zM319 1518h338l166 -324h-284z" />
<glyph unicode="&#xfa;" horiz-adv-x="1449" d="M145 453v618h344v-569q0 -111 40 -160t141 -49q127 0 194 104v674h344v-704q0 -98 62 -99q43 0 104 29l12 -272q-98 -45 -256 -45q-184 0 -239 139q-123 -139 -352 -139q-199 0 -296.5 128t-97.5 345zM541 1194l166 324h337l-219 -324h-284z" />
<glyph unicode="&#xfb;" horiz-adv-x="1449" d="M145 453v618h344v-569q0 -111 40 -160t141 -49q127 0 194 104v674h344v-704q0 -98 62 -99q43 0 104 29l12 -272q-98 -45 -256 -45q-184 0 -239 139q-123 -139 -352 -139q-199 0 -296.5 128t-97.5 345zM305 1194l209 324h332l207 -324h-252l-121 160l-121 -160h-254z" />
<glyph unicode="&#xfc;" horiz-adv-x="1449" d="M145 453v618h344v-569q0 -111 40 -160t141 -49q127 0 194 104v674h344v-704q0 -98 62 -99q43 0 104 29l12 -272q-98 -45 -256 -45q-184 0 -239 139q-123 -139 -352 -139q-199 0 -296.5 128t-97.5 345zM248 1368q0 147 174 148q172 0 172 -148q0 -145 -172 -145 q-174 0 -174 145zM774 1368q0 147 176 148q170 0 170 -148q0 -145 -170 -145q-176 0 -176 145z" />
<glyph unicode="&#xfd;" horiz-adv-x="1239" d="M8 1071h381l244 -696l246 696h346l-426 -1057q-90 -227 -194.5 -323.5t-289.5 -96.5q-139 0 -245 72l49 262q106 -55 190 -55q61 0 95 28.5t63 90.5l18 43zM471 1194l166 324h338l-219 -324h-285z" />
<glyph unicode="&#xfe;" horiz-adv-x="1394" d="M158 -385v1839h344v-477q123 113 305 113q221 0 358.5 -155t137.5 -398.5t-138.5 -400t-357.5 -156.5q-193 0 -305 118v-483h-344zM502 358q84 -80 207 -79q111 0 177 69.5t66 188.5q0 117 -66.5 185.5t-176.5 68.5q-119 0 -205 -82z" />
<glyph unicode="&#xff;" horiz-adv-x="1239" d="M8 1071h381l244 -696l246 696h346l-426 -1057q-90 -227 -194.5 -323.5t-289.5 -96.5q-139 0 -245 72l49 262q106 -55 190 -55q61 0 95 28.5t63 90.5l18 43zM197 1368q0 147 174 148q172 0 172 -148q0 -145 -172 -145q-174 0 -174 145zM723 1368q0 147 176 148 q170 0 170 -148q0 -145 -170 -145q-176 0 -176 145z" />
<glyph unicode="&#x152;" horiz-adv-x="2375" d="M109 692q0 309 201.5 514t506.5 205q176 0 320 -88v70h1118v-301h-789v-244h639v-277h-639v-272h789v-299h-1118v70q-152 -92 -320 -93q-305 0 -506.5 204t-201.5 511zM442 692q0 -168 112 -280.5t286 -112.5q186 0 297 115v563q-117 113 -301 113q-172 0 -283 -114 t-111 -284z" />
<glyph unicode="&#x153;" horiz-adv-x="2136" d="M88 532q0 244 164 406t412 162q145 0 261.5 -60.5t186.5 -165.5q68 104 182.5 165t261.5 61q233 0 357.5 -128t124.5 -321q0 -139 -21 -202h-692q12 -100 77.5 -152.5t205.5 -52.5q74 0 157.5 30.5t137.5 71.5l127 -229q-178 -145 -455 -146q-328 0 -469 213 q-147 -213 -442 -213q-248 0 -412 159.5t-164 401.5zM420 532q0 -104 68.5 -176.5t175.5 -72.5q111 0 179 72.5t68 176.5q0 109 -68.5 181.5t-178.5 72.5q-106 0 -175 -72.5t-69 -181.5zM1329 664h418v32q-4 70 -60.5 106t-140.5 36q-88 0 -146.5 -47t-70.5 -127z" />
<glyph unicode="&#x178;" horiz-adv-x="1419" d="M6 1368v25h385l318 -539l319 539h383v-25l-530 -829v-539h-344v537zM270 1690q0 147 174 147q172 0 172 -147q0 -145 -172 -146q-174 1 -174 146zM797 1690q0 147 176 147q170 0 170 -147q0 -145 -170 -146q-176 1 -176 146z" />
<glyph unicode="&#x2c6;" d="M254 1194l209 324h332l206 -324h-251l-121 160l-121 -160h-254z" />
<glyph unicode="&#x2dc;" d="M231 1331q35 80 99.5 132.5t138.5 52.5q80 0 179.5 -59.5t139.5 -59.5q90 0 140 90l98 -113q-94 -184 -240 -184q-74 0 -176 58.5t-139 58.5q-86 0 -145 -90z" />
<glyph unicode="&#x2013;" horiz-adv-x="1329" d="M143 485v269h1043v-269h-1043z" />
<glyph unicode="&#x2014;" horiz-adv-x="1849" d="M143 485v269h1563v-269h-1563z" />
<glyph unicode="&#x2018;" horiz-adv-x="620" d="M106 895q0 115 53.5 261.5t121.5 256.5l188 -78l-86 -254q125 -41 125 -186q0 -96 -52.5 -148.5t-148.5 -52.5q-94 0 -147.5 53.5t-53.5 147.5z" />
<glyph unicode="&#x2019;" horiz-adv-x="614" d="M115 1208q0 96 52 149.5t146.5 53.5t148.5 -54t54 -149q0 -115 -53 -260t-121 -256l-190 76l86 256q-123 37 -123 184z" />
<glyph unicode="&#x201a;" horiz-adv-x="634" d="M115 162q0 96 52 149.5t146.5 53.5t148.5 -54.5t54 -148.5q0 -115 -53 -260.5t-121 -255.5l-190 75l86 256q-123 38 -123 185z" />
<glyph unicode="&#x201c;" horiz-adv-x="1048" d="M111 952q0 100 48 232.5t105 228.5l166 -65l-78 -234q109 -31 109 -162q0 -84 -45 -131t-129 -47q-82 0 -129 48t-47 130zM584 952q0 102 47 233.5t106 227.5l164 -65l-78 -234q111 -31 111 -162q0 -84 -46 -131t-128 -47q-84 0 -130 48t-46 130z" />
<glyph unicode="&#x201d;" horiz-adv-x="1040" d="M115 1235q0 84 45 130t129 46q82 0 129 -47t47 -129q0 -102 -48 -235.5t-106 -225.5l-166 66l78 233q-108 31 -108 162zM586 1235q0 84 47 130t129 46t129 -47t47 -129q0 -100 -48 -232.5t-106 -228.5l-163 66l75 233q-110 31 -110 162z" />
<glyph unicode="&#x201e;" horiz-adv-x="1058" d="M117 106q0 84 46 131.5t128 47.5q84 0 130 -48.5t46 -130.5q0 -102 -48 -234t-106 -226l-163 65l77 234q-110 26 -110 161zM590 107q0 84 46 131t130 47q82 0 128 -48.5t46 -130.5q0 -102 -48 -233t-106 -227l-163 65l77 234q-110 27 -110 162z" />
<glyph unicode="&#x2022;" horiz-adv-x="788" d="M115 618q0 133 73.5 208t204.5 75q133 0 207 -74.5t74 -208.5q0 -135 -74 -208.5t-207 -73.5t-205.5 73.5t-72.5 208.5z" />
<glyph unicode="&#x2026;" horiz-adv-x="1730" d="M117 147q0 86 49 133.5t137 47.5t137 -47.5t49 -133.5t-49 -132t-137 -46q-90 0 -138 46t-48 132zM678 147q0 86 49 133.5t137 47.5t137.5 -47.5t49.5 -133.5t-49.5 -132t-137.5 -46q-90 0 -138 46t-48 132zM1239 147q0 86 49 133.5t137 47.5t137.5 -47.5t49.5 -133.5 t-49.5 -132t-137.5 -46q-90 0 -138 46t-48 132z" />
<glyph unicode="&#x2039;" horiz-adv-x="688" d="M90 586v63l336 424h23l124 -59l-196 -396l196 -395l-124 -61h-23z" />
<glyph unicode="&#x203a;" horiz-adv-x="688" d="M113 1012l127 61h24l332 -424v-63l-332 -424h-24l-125 59l196 397z" />
<glyph unicode="&#x20ac;" d="M66 477v156h96q-2 20 -2 61v31h-94v156h106q39 256 189.5 394t388.5 138q231 0 405 -174l-121 -256q-111 117 -254 117q-197 0 -252 -219h459l-72 -156h-405v-31q0 -43 2 -61h365l-64 -156h-276q55 -184 233 -184q137 0 266 98l127 -282q-180 -129 -422 -129 q-225 0 -371.5 129t-191.5 368h-112z" />
<glyph unicode="&#x2122;" horiz-adv-x="1742" d="M152 1176v182h534v-182h-176v-445h-182v445h-176zM834 731v627h151l211 -248l213 248h152v-627h-181v340l-168 -201h-30l-168 201v-340h-180z" />
<glyph unicode="&#xe000;" horiz-adv-x="1070" d="M0 1070h1070v-1070h-1070v1070z" />
<glyph unicode="&#xfb01;" horiz-adv-x="1701" d="M78 760v266h184v59q0 168 97.5 279t285.5 111q150 0 279 -52l-60 -274q-82 45 -159 45q-98 0 -99 -111v-57h291v-266h-291v-760h-344v760h-184zM1098 1372.5q0 155.5 188 155.5q184 0 184 -155.5t-184 -155.5q-188 0 -188 155.5zM1112 283v788h344v-704q0 -98 66 -99 q29 0 61.5 11.5t38.5 17.5l14 -272q-4 -4 -38.5 -14.5t-96 -20.5t-121.5 -10q-268 0 -268 303z" />
<glyph unicode="&#xfb02;" horiz-adv-x="1697" d="M78 760v266h184v59q0 168 97.5 279t285.5 111q150 0 279 -52l-60 -274q-82 45 -159 45q-98 0 -99 -111v-57h291v-266h-291v-760h-344v760h-184zM1104 287v1167h344v-1081q0 -104 72 -105q47 0 108 29l12 -272q-121 -45 -260 -45q-276 0 -276 307z" />
<glyph unicode="&#xfb03;" horiz-adv-x="2652" d="M78 760v266h184v59q0 168 97.5 279t285.5 111q150 0 279 -52l-60 -274q-82 45 -159 45q-98 0 -99 -111v-57h291v-266h-291v-760h-344v760h-184zM1032 760v266h185v59q0 168 97 279t285 111q150 0 279 -52l-59 -274q-82 45 -160 45q-98 0 -98 -111v-57h290v-266h-290v-760 h-344v760h-185zM2048 1372.5q0 155.5 188 155.5q184 0 184.5 -155.5t-184.5 -155.5q-188 0 -188 155.5zM2062 283v788h344v-704q0 -98 66 -99q29 0 61.5 11.5t38.5 17.5l15 -272q-4 -4 -39 -14.5t-96.5 -20.5t-120.5 -10q-269 0 -269 303z" />
<glyph unicode="&#xfb04;" horiz-adv-x="2650" d="M78 760v266h184v59q0 168 97.5 279t285.5 111q150 0 279 -52l-60 -274q-82 45 -159 45q-98 0 -99 -111v-57h291v-266h-291v-760h-344v760h-184zM1032 760v266h185v59q0 168 97 279t285 111q150 0 279 -52l-59 -274q-82 45 -160 45q-98 0 -98 -111v-57h290v-266h-290v-760 h-344v760h-185zM2058 287v1167h344v-1081q0 -104 72 -105q47 0 109 29l12 -272q-121 -45 -260 -45q-277 0 -277 307z" />
</font>
</defs>
</svg>
