<?xml version="1.0" standalone="no"?>
<!DOCTYPE svg PUBLIC "-//W3C//DTD SVG 1.1//EN" "http://www.w3.org/Graphics/SVG/1.1/DTD/svg11.dtd" >
<svg xmlns="http://www.w3.org/2000/svg">
<metadata>
This is a custom SVG webfont generated by Font Squirrel.
Copyright   : Copyright c 2011 by Hannes von Doehren All rights reserved
Designer    : Hannes von Doehren
Foundry     : Hannes von Doehren
Foundry URL : httpwwwhvdfontscom
</metadata>
<defs>
<font id="PlutoRegular" horiz-adv-x="1228" >
<font-face units-per-em="2048" ascent="1536" descent="-512" />
<missing-glyph horiz-adv-x="512" />
<glyph unicode=" "  horiz-adv-x="512" />
<glyph unicode="&#x09;" horiz-adv-x="512" />
<glyph unicode="&#xa0;" horiz-adv-x="512" />
<glyph unicode="!" horiz-adv-x="606" d="M160 118.5q0 143.5 143 143.5q70 0 108 -37t38 -106q0 -143 -146 -144q-143 0 -143 143.5zM195 1393h215l-29 -906h-156z" />
<glyph unicode="&#x22;" horiz-adv-x="917" d="M156 1393h170l-9 -506h-151zM590 1393h170l-8 -506h-154z" />
<glyph unicode="#" horiz-adv-x="1435" d="M90 322v161h223l107 426h-172v162h213l82 322h162v-17l-78 -305h356l82 322h162v-17l-78 -305h199v-162h-238l-106 -426h186v-161h-227l-80 -322h-166v18l76 304h-353l-80 -322h-163v18l75 304h-182zM481 483h353l108 426h-354z" />
<glyph unicode="$" d="M84 1006q0 160 119 271.5t348 129.5v168h133v-166q254 -12 436 -109l-63 -200q-150 92 -373 112v-415l84 -23q190 -53 283.5 -139t93.5 -229q0 -174 -126 -286t-335 -134v-250h-133v244q-262 12 -445 120l52 203q176 -113 393 -127v436l-152 39q-315 81 -315 355z M303 1022q0 -68 46 -109t143 -65l59 -17v379q-123 -12 -185.5 -63t-62.5 -125zM684 182q111 16 175.5 70.5t64.5 136.5q0 70 -60.5 114t-179.5 75v-396z" />
<glyph unicode="%" horiz-adv-x="1787" d="M84 1048.5q0 155.5 103.5 260t263 104.5t264 -104.5t104.5 -260t-104.5 -258t-264 -102.5t-263 102.5t-103.5 258zM248 1049q0 -86 57 -144.5t145.5 -58.5t145.5 58.5t57 144.5t-57 145t-145.5 59t-145.5 -59t-57 -145zM430 0v18l727 1375h186v-17l-725 -1376h-188z M971 340q0 156 103.5 260.5t263 104.5t264 -104.5t104.5 -260.5t-104.5 -258t-264 -102t-263 102t-103.5 258zM1135 340q0 -86 57 -144.5t145 -58.5t145.5 58.5t57.5 144.5q0 88 -57.5 146.5t-145.5 58.5t-145 -58.5t-57 -146.5z" />
<glyph unicode="&#x26;" horiz-adv-x="1546" d="M115 373q0 135 82 221t227 145q-84 82 -126 156t-42 170q0 150 114.5 249t315.5 99q188 0 312 -97t124 -246.5t-83 -237t-228 -138.5l-43 -16l303 -279q135 158 209 389l166 -108q-88 -246 -234 -410l261 -239v-31h-281l-135 129q-203 -150 -463 -149q-223 0 -351 104.5 t-128 288.5zM328 385q0 -100 77.5 -160.5t208.5 -60.5q160 0 304 98l-357 342q-111 -41 -172 -91t-61 -128zM463 1053q0 -43 28.5 -92.5t55 -76t80.5 -75.5l104 37q96 35 139 81t43 120q0 78 -63.5 130t-163.5 52q-109 0 -166 -49t-57 -127z" />
<glyph unicode="'" horiz-adv-x="483" d="M156 1393h170l-9 -506h-151z" />
<glyph unicode="(" horiz-adv-x="618" d="M106 537q0 322 101.5 566.5t214.5 362.5l125 -73q-96 -137 -173 -357.5t-77 -500.5q0 -279 77 -499t173 -360l-125 -71q-113 117 -214.5 362.5t-101.5 569.5z" />
<glyph unicode=")" horiz-adv-x="618" d="M72 -324q96 137 173 358.5t77 500.5q0 283 -77 502.5t-173 355.5l125 73q113 -119 214 -363.5t101 -565.5q0 -324 -101.5 -570t-213.5 -362z" />
<glyph unicode="*" horiz-adv-x="1097" d="M125 1124q0 45 32 72q20 16 48 17q18 0 39 -7q100 -33 254 -133q-31 147 -31 285q0 47 24.5 70.5t57.5 23.5t57.5 -23.5t24.5 -68.5q0 -117 -37 -279q162 94 266 123q17 4 32 4q31 0 51 -17q30 -26 30 -65q0 -66 -70 -84q-131 -37 -289 -47q131 -113 215 -221 q20 -28 20 -55q0 -18 -8 -35q-22 -43 -67 -43q-53 0 -84 41q-92 129 -143 258q-35 -90 -133 -250q-33 -49 -90 -49q-51 0 -69 48q-6 16 -6 32q0 31 23 61q86 111 195 203q-106 10 -277 64q-65 18 -65 75z" />
<glyph unicode="+" d="M135 535v170h393v393h170v-393h396v-170h-396v-394h-170v394h-393z" />
<glyph unicode="," horiz-adv-x="565" d="M137 111q0 150 144 149q70 0 108.5 -41t38.5 -108q0 -92 -51 -233.5t-101 -227.5l-122 49l94 276q-111 21 -111 136z" />
<glyph unicode="-" horiz-adv-x="1101" d="M156 535v170h790v-170h-790z" />
<glyph unicode="." horiz-adv-x="563" d="M137 118.5q0 143.5 144 143.5q70 0 107.5 -37t37.5 -106q0 -143 -145 -144q-144 0 -144 143.5z" />
<glyph unicode="/" horiz-adv-x="1013" d="M51 0v18l727 1375h185v-17l-725 -1376h-187z" />
<glyph unicode="0" horiz-adv-x="1484" d="M143 694q0 334 149.5 526.5t446.5 192.5q299 0 450.5 -192.5t151.5 -526.5q0 -330 -151.5 -522t-450.5 -192q-297 0 -446.5 192t-149.5 522zM350 694q0 -236 92.5 -377t296.5 -141q395 0 396 518q0 522 -396 523q-205 0 -297 -142.5t-92 -380.5z" />
<glyph unicode="1" horiz-adv-x="1019" d="M37 1090l598 303h160v-1393h-213v1151l-465 -223z" />
<glyph unicode="2" horiz-adv-x="1335" d="M127 928q4 223 143.5 354t388.5 131q246 0 376 -129t130 -319q0 -143 -61.5 -258t-220.5 -230l-396 -291h719v-186h-1050v162l567 428q119 90 172 174t53 184q0 117 -74.5 193t-218.5 76q-162 0 -246.5 -88.5t-86.5 -235.5z" />
<glyph unicode="3" horiz-adv-x="1318" d="M129 70l53 180q199 -88 410 -88q164 0 267.5 66.5t103.5 181.5q0 213 -322 213h-336v188h336q131 0 202.5 58.5t71.5 148.5q0 100 -88 155.5t-231 55.5q-229 0 -414 -92l-53 182q213 94 463 94q258 0 399.5 -97t141.5 -278q0 -115 -64.5 -201.5t-177.5 -109.5 q291 -76 291 -348q0 -184 -157 -291.5t-433 -107.5q-221 0 -463 90z" />
<glyph unicode="4" horiz-adv-x="1456" d="M90 289v147l721 957h268v-926h271v-178h-271v-289h-202v289h-787zM311 467h566v743z" />
<glyph unicode="5" horiz-adv-x="1312" d="M106 76l60 178q190 -92 414 -92q166 0 274.5 69.5t108.5 212.5q0 236 -367 236h-399l-9 10l60 703h887v-187h-709l-29 -366h209q270 0 422 -95.5t152 -295.5q0 -233 -164 -351t-426 -118q-253 0 -484 96z" />
<glyph unicode="6" horiz-adv-x="1435" d="M139 698q0 324 168 519.5t467 195.5q150 0 279 -38t198 -83l-65 -174q-164 113 -389 113q-211 0 -321.5 -132t-121.5 -360q178 188 447 189q242 0 376 -121t134 -334q0 -221 -151.5 -357t-389.5 -136q-297 0 -464 194t-167 524zM367 549q31 -174 133 -273.5t270 -99.5 q145 0 237.5 85t92.5 212q0 137 -90 208t-240 71q-227 0 -403 -203z" />
<glyph unicode="7" horiz-adv-x="1134" d="M63 1206v187h1018v-154l-596 -1239h-235v20l592 1186h-779z" />
<glyph unicode="8" horiz-adv-x="1433" d="M139 379q0 291 324 348q-127 18 -202 107.5t-75 203.5q0 180 140.5 277.5t390.5 97.5t389 -97t139 -278q0 -115 -73.5 -204t-200.5 -107q324 -57 323 -348q0 -184 -153.5 -291.5t-424 -107.5t-424 107.5t-153.5 291.5zM354 401q0 -111 100.5 -175t262.5 -64t262 64.5 t100 174.5q0 102 -89 162t-271 60t-273.5 -61t-91.5 -161zM399 1028q0 -90 78 -148.5t242 -58.5q160 0 237.5 58.5t77.5 148.5q0 102 -86 154.5t-231.5 52.5t-231.5 -52.5t-86 -154.5z" />
<glyph unicode="9" horiz-adv-x="1435" d="M125 920q0 221 152.5 357t390.5 136q297 0 462.5 -194.5t165.5 -524.5q0 -324 -166.5 -519t-465.5 -195q-150 0 -280 37.5t-200 82.5l66 174q168 -113 389 -112q211 0 321.5 132t120.5 359q-178 -188 -444 -188q-242 0 -377 121t-135 334zM338 920q0 -137 90 -209 t240 -72q236 0 403 207q-33 172 -135 271.5t-268 99.5q-145 0 -237.5 -85t-92.5 -212z" />
<glyph unicode=":" horiz-adv-x="595" d="M154 115q0 68 36.5 104.5t104 36.5t105.5 -37t38 -104.5t-38 -104.5t-105 -37q-141 1 -141 142zM154 958q0 68 36.5 105t104 37t105.5 -37t38 -104.5t-38 -104.5t-105 -37q-141 0 -141 141z" />
<glyph unicode=";" horiz-adv-x="606" d="M158 958q0 68 36.5 105t104.5 37t105.5 -37t37.5 -104.5t-37.5 -104.5t-105.5 -37q-141 0 -141 141zM166 106q0 147 141 148q68 0 106 -41t38 -107q0 -90 -49.5 -228t-98.5 -224l-121 49l92 270q-108 22 -108 133z" />
<glyph unicode="&#x3c;" d="M135 532v168l940 406h17v-166l-785 -322l785 -317v-168h-17z" />
<glyph unicode="=" d="M135 248v170h959v-170h-959zM135 821v170h959v-170h-959z" />
<glyph unicode="&#x3e;" d="M135 133v168l785 317l-785 322v166h17l940 -406v-168l-940 -399h-17z" />
<glyph unicode="?" horiz-adv-x="997" d="M86 1251q145 162 401 162q180 0 290 -99.5t110 -258.5q0 -123 -49.5 -192.5t-137.5 -129.5l-122 -82q-43 -31 -57.5 -51t-14.5 -57q0 -29 8 -56h-178q-18 51 -19 107q0 98 113 170l119 80q61 43 92 86t31 112q0 88 -60.5 140.5t-152.5 52.5q-98 0 -179 -42t-128 -106z M283 118.5q0 143.5 143 143.5q70 0 107.5 -37t37.5 -106q0 -143 -145 -144q-143 0 -143 143.5z" />
<glyph unicode="@" horiz-adv-x="2037" d="M104 539q0 406 263.5 670t666.5 264q406 0 660 -229.5t254 -590.5q0 -309 -132.5 -469.5t-342.5 -160.5q-158 0 -205 127q-113 -125 -316 -125q-205 0 -331.5 138t-126.5 357q0 221 127 361.5t331 140.5q195 0 303 -115v99h205v-723q0 -57 18.5 -85t73.5 -28 q92 0 168 124t76 359q0 295 -209 483.5t-553 188.5q-346 0 -561 -219t-215 -567q0 -346 216 -567.5t560 -221.5q203 0 371 82l55 -135q-195 -94 -426 -94q-401 0 -665.5 266.5t-264.5 669.5zM702 520.5q0 -143.5 83 -230.5t223 -87q143 0 247 104v430q-100 104 -247 105 q-139 0 -222.5 -89t-83.5 -232.5z" />
<glyph unicode="A" horiz-adv-x="1454" d="M33 0l577 1393h246l553 -1393h-215l-123 307h-694l-127 -307h-217zM432 469h584l-283 711z" />
<glyph unicode="B" horiz-adv-x="1454" d="M217 0v1393h537q225 0 349 -91.5t124 -273.5q0 -113 -61.5 -189.5t-172.5 -113.5q344 -59 344 -356q0 -172 -126 -270.5t-363 -98.5h-631zM430 184h389q291 0 291 209q0 223 -326 223h-354v-432zM430 805h285q291 0 291 199q0 109 -71 156.5t-210 47.5h-295v-403z" />
<glyph unicode="C" horiz-adv-x="1531" d="M129 694q0 334 198.5 526.5t514.5 192.5q264 0 413.5 -140t155.5 -386l-197 -41q-4 176 -100 272t-276 96q-221 0 -354.5 -138t-133.5 -382q0 -242 135.5 -379t360.5 -137q131 0 254 53.5t209 133.5l104 -160q-100 -96 -253.5 -160.5t-317.5 -64.5q-315 0 -514 192 t-199 522z" />
<glyph unicode="D" horiz-adv-x="1632" d="M217 0v1393h565q319 -2 519 -185.5t200 -513.5q0 -328 -199.5 -511t-519.5 -183h-565zM430 186h344q229 0 368.5 134.5t139.5 373.5q0 244 -139 377t-369 135h-344v-1020z" />
<glyph unicode="E" horiz-adv-x="1429" d="M217 0v1393h1079v-189h-876v-391h727v-188h-727v-437h876v-188h-1079z" />
<glyph unicode="F" horiz-adv-x="1341" d="M217 0v1393h1038v-189h-835v-481h725v-188h-725v-535h-203z" />
<glyph unicode="G" horiz-adv-x="1605" d="M127 694q0 330 211 524.5t530 194.5q305 0 535 -192l-103 -164q-180 158 -426 157q-227 0 -376.5 -139t-149.5 -381q0 -238 150.5 -377t384.5 -139q207 0 360 98v318h-434v186h647v-616q-100 -78 -266 -131t-322 -53q-319 0 -530 193t-211 521z" />
<glyph unicode="H" horiz-adv-x="1722" d="M217 0v1393h213v-598h862v598h213v-1393h-213v608h-862v-608h-213z" />
<glyph unicode="I" horiz-adv-x="645" d="M217 0v1393h213v-1393h-213z" />
<glyph unicode="J" horiz-adv-x="1343" d="M57 522l211 21q27 -367 334 -367q166 0 248 99.5t82 279.5v838h213v-852q0 -256 -141.5 -410t-405.5 -154q-258 0 -391.5 144.5t-149.5 400.5z" />
<glyph unicode="K" horiz-adv-x="1593" d="M217 0v1393h213v-609h320l419 609h222v-33l-480 -676q33 -35 87 -130l101 -176q46 -81 120.5 -146.5t152.5 -65.5q90 0 168 39l25 -172q-106 -53 -234 -53q-119 0 -222 80.5t-161 179.5l-122 211q-65 113 -99 147h-297v-598h-213z" />
<glyph unicode="L" horiz-adv-x="1241" d="M217 0v1393h213v-1207h760v-186h-973z" />
<glyph unicode="M" horiz-adv-x="1951" d="M217 0v1393h193l567 -682l565 682h195v-1393h-213v1055l-529 -635h-41l-524 635v-1055h-213z" />
<glyph unicode="N" horiz-adv-x="1718" d="M217 0v1393h186l885 -1057v1057h213v-1393h-186l-885 1053v-1053h-213z" />
<glyph unicode="O" horiz-adv-x="1685" d="M125 694q0 309 205 514t510 205q309 0 514 -204.5t205 -514.5q0 -305 -205 -509.5t-514 -204.5q-305 0 -510 204.5t-205 509.5zM336 694q0 -221 143.5 -367.5t362.5 -146.5q221 0 364.5 146.5t143.5 367.5q0 223 -143.5 369.5t-364.5 146.5q-219 0 -362.5 -146.5 t-143.5 -369.5z" />
<glyph unicode="P" horiz-adv-x="1435" d="M217 0v1393h631q213 0 354 -128t141 -370q0 -223 -144 -356t-351 -133h-418v-406h-213zM430 592h385q131 0 219 83t88 220q0 150 -87 230.5t-220 80.5h-385v-614z" />
<glyph unicode="Q" horiz-adv-x="1687" d="M127 694q0 309 205 514t510 205q309 0 514 -204.5t205 -514.5q0 -240 -133.5 -422t-352.5 -249q10 -8 50 -43t58.5 -49.5t59.5 -42t70.5 -40t74 -23.5t89.5 -11q133 0 217 32l24 -176q-113 -39 -256 -39q-115 0 -224.5 49.5t-174.5 108.5l-130 119q-65 59 -93 72 q-305 2 -509 205.5t-204 508.5zM336 694q0 -221 143.5 -367.5t362.5 -146.5q221 0 364.5 146.5t143.5 367.5q0 223 -143.5 369.5t-364.5 146.5q-219 0 -362.5 -146.5t-143.5 -369.5z" />
<glyph unicode="R" horiz-adv-x="1576" d="M217 1393h604q104 0 194.5 -25t166 -75t120 -139t44.5 -208q0 -184 -127 -304t-312 -130l81 -87q62 -67 95 -98.5t87.5 -76.5t103.5 -64.5t98 -19.5q90 0 168 39l23 -172q-106 -53 -224 -53q-106 0 -216.5 68.5t-185.5 151.5l-162 180q-87 97 -134 132h-211v-512h-213 v1393zM430 682h414q121 0 199.5 70.5t78.5 189.5q0 129 -77.5 196.5t-200.5 67.5h-414v-524z" />
<glyph unicode="S" horiz-adv-x="1310" d="M127 1006q0 174 140.5 289.5t408.5 115.5q137 0 270 -31.5t217 -79.5l-63 -200q-76 47 -198 80.5t-234 33.5q-160 0 -241 -54t-81 -138q0 -127 189 -174l276 -74q190 -53 283.5 -139t93.5 -229q0 -193 -154.5 -309.5t-402.5 -116.5q-137 0 -270.5 37.5t-210.5 82.5 l51 203q201 -127 434 -127q152 0 242 58.5t90 154.5q0 72 -60.5 116t-183.5 75l-281 71q-315 81 -315 355z" />
<glyph unicode="T" horiz-adv-x="1296" d="M53 1180v213h1188v-213h-475v-1180h-213v1180h-500z" />
<glyph unicode="U" horiz-adv-x="1628" d="M199 575v818h213v-803q0 -193 100 -303.5t299 -110.5q201 0 303.5 113.5t102.5 302.5v801h213v-818q0 -254 -163 -426t-456 -172q-295 0 -453.5 164t-158.5 434z" />
<glyph unicode="V" horiz-adv-x="1468" d="M45 1393h231l455 -1203l473 1203h234l-576 -1393h-264z" />
<glyph unicode="W" horiz-adv-x="2230" d="M45 1393h227l457 -1153l297 686l-182 467h229l430 -1121l463 1121h232l-576 -1393h-231l-273 674l-291 -674h-229z" />
<glyph unicode="X" horiz-adv-x="1474" d="M66 0v18l520 676l-520 682v17h245l426 -557l428 557h242v-17l-520 -682l520 -676v-18h-246l-424 553l-426 -553h-245z" />
<glyph unicode="Y" horiz-adv-x="1384" d="M23 1376v17h237l432 -627l432 627h238v-17l-563 -805v-571h-213v569z" />
<glyph unicode="Z" horiz-adv-x="1300" d="M123 0v154l782 1052h-782v187h1055v-154l-781 -1053h781v-186h-1055z" />
<glyph unicode="[" horiz-adv-x="700" d="M186 -385v1839h445v-170h-273v-1499h273v-170h-445z" />
<glyph unicode="\" horiz-adv-x="1013" d="M51 1376v17h187l725 -1375v-18h-187z" />
<glyph unicode="]" horiz-adv-x="698" d="M70 -215h272v1499h-272v170h442v-1839h-442v170z" />
<glyph unicode="^" d="M152 811v18l374 564h162l383 -564v-18h-199l-264 414l-262 -414h-194z" />
<glyph unicode="_" horiz-adv-x="1482" d="M229 -74h1024v-172h-1024v172z" />
<glyph unicode="`" d="M438 1518h215l166 -297h-184z" />
<glyph unicode="a" horiz-adv-x="1435" d="M109 532q0 246 141 402t371 156q213 0 340 -127v108h213v-788q0 -121 86 -121q55 0 114 37l15 -170q-90 -49 -207 -49q-170 0 -207 157q-137 -156 -354 -155q-229 0 -370.5 153t-141.5 397zM324 532q0 -162 97 -264t255 -102q168 0 285 121v495q-45 49 -123 85t-162 36 q-160 0 -256 -102.5t-96 -268.5z" />
<glyph unicode="b" horiz-adv-x="1357" d="M180 0v1454h213v-493q133 129 344 129q229 0 371.5 -155t142.5 -398.5t-142 -400t-372 -156.5q-215 0 -344 135v-115h-213zM393 287q47 -49 125 -85t162 -36q160 0 256 102.5t96 268.5q0 164 -96 265t-256 101q-166 0 -287 -125v-491z" />
<glyph unicode="c" horiz-adv-x="1239" d="M106 532q0 248 155 408t409 160q221 0 343 -111.5t130 -300.5l-191 -45q-16 268 -280 268q-160 0 -253 -104.5t-93 -267.5q0 -170 94 -274.5t289 -104.5q172 0 338 127l83 -168q-188 -147 -446 -148q-291 0 -434.5 153.5t-143.5 407.5z" />
<glyph unicode="d" horiz-adv-x="1435" d="M106 536.5q0 243.5 142.5 398.5t369.5 155q211 0 345 -127v491h213v-1173q0 -119 86 -119q47 0 110 37l17 -170q-86 -49 -209 -49q-168 0 -207 147q-127 -147 -354.5 -147t-370 156.5t-142.5 400zM324 537q0 -166 97 -268.5t257 -102.5q84 0 162 36t123 85v491 q-121 125 -285 125q-160 0 -257 -101t-97 -265z" />
<glyph unicode="e" horiz-adv-x="1251" d="M104 532q0 242 155 405t407 163q233 0 355 -126t122 -321q0 -117 -23 -188h-796q16 -145 107 -229t259 -84q197 0 354 118l84 -153q-178 -145 -444 -146q-289 0 -434.5 156.5t-145.5 404.5zM328 631h606q4 33 4 57q0 100 -69.5 167t-206.5 67q-143 0 -232.5 -84 t-101.5 -207z" />
<glyph unicode="f" horiz-adv-x="923" d="M78 844v170h211v88q0 166 88 269.5t264 103.5q154 0 274 -84l-53 -181q-94 76 -198 76q-162 0 -162 -184v-88h362v-170h-362v-844h-213v844h-211z" />
<glyph unicode="g" horiz-adv-x="1357" d="M109 573q0 217 143 367t369 150q215 0 342 -127v108h213v-956q0 -250 -143.5 -385.5t-375.5 -135.5q-35 0 -66.5 2.5t-62 8.5t-54 10t-51.5 14.5t-43 15.5t-40 16t-33 15.5l-30.5 16.5t-24.5 12l47 191q176 -113 358 -113q133 0 219.5 71.5t86.5 217.5v114 q-135 -125 -342 -125q-225 0 -368.5 148.5t-143.5 363.5zM326 573q0 -141 97 -233t255 -92q168 0 285 121v409q-49 53 -125 89t-160 36q-158 0 -255 -93.5t-97 -236.5z" />
<glyph unicode="h" horiz-adv-x="1406" d="M180 0v1454h213v-545q121 180 369 181q199 0 301 -131.5t102 -342.5v-333q0 -121 86 -121q45 0 113 37l14 -170q-86 -49 -207 -49q-219 0 -219 256v348q0 141 -67.5 225t-196.5 84q-106 0 -185 -67.5t-110 -163.5v-662h-213z" />
<glyph unicode="i" horiz-adv-x="659" d="M154 1376q0 119 133 119q131 0 131 -119q0 -121 -131 -121q-133 0 -133 121zM178 236v835h213v-788q0 -121 86 -121q61 0 113 37l16 -170q-20 -16 -81.5 -32.5t-127.5 -16.5q-219 0 -219 256z" />
<glyph unicode="j" horiz-adv-x="575" d="M-20 -262q98 55 149 129t51 196v1008h213v-1001q0 -326 -289 -473zM156 1376q0 119 133 119q131 0 131 -119q0 -121 -131 -121q-133 0 -133 121z" />
<glyph unicode="k" horiz-adv-x="1277" d="M180 0v1454h213v-825q115 0 197 17.5t159.5 63.5t130 136t78.5 225h213q-66 -385 -321 -530l350 -506v-35h-233l-305 467q-127 -29 -269 -29v-438h-213z" />
<glyph unicode="l" horiz-adv-x="669" d="M172 246v1208h213v-1159q0 -133 109 -133q57 0 124 37l15 -170q-98 -49 -217 -49q-244 0 -244 266z" />
<glyph unicode="m" horiz-adv-x="2131" d="M180 0v1071h213v-160q123 180 359 181q276 0 356 -224q53 100 153.5 161t235.5 61q197 0 294 -130.5t97 -343.5v-333q0 -121 84 -121q51 0 115 37l16 -170q-86 -49 -209 -49q-219 0 -219 256v348q0 143 -64.5 226t-191.5 83q-104 0 -176 -63.5t-100 -157.5v-672h-213v586 q0 143 -63.5 225t-190.5 82q-106 0 -179 -63.5t-104 -159.5v-670h-213z" />
<glyph unicode="n" horiz-adv-x="1406" d="M180 0v1071h213v-164q125 182 369 183q199 0 301 -131.5t102 -342.5v-333q0 -121 86 -121q53 0 113 37l14 -170q-90 -49 -207 -49q-219 0 -219 256v348q0 141 -67.5 225t-196.5 84q-106 0 -185 -67.5t-110 -163.5v-662h-213z" />
<glyph unicode="o" horiz-adv-x="1351" d="M102 532q0 246 162 407t410 161q250 0 411.5 -161t161.5 -407q0 -242 -161.5 -401.5t-411.5 -159.5q-248 0 -410 159.5t-162 401.5zM309 532q0 -156 102.5 -260t262.5 -104q162 0 265 103.5t103 260.5q0 160 -103 265.5t-265 105.5q-160 0 -262.5 -105.5t-102.5 -265.5z " />
<glyph unicode="p" horiz-adv-x="1435" d="M45 1042q20 16 81.5 33t125.5 17q170 0 209 -148q127 145 352 146q229 0 371.5 -156t142.5 -402q0 -244 -142.5 -398t-371.5 -154q-207 0 -340 122v-487h-213v1173q0 121 -86 121q-68 0 -115 -39zM473 285q119 -119 285 -119q160 0 257 101.5t97 264.5q0 166 -97 268.5 t-257 102.5q-86 0 -162 -36t-123 -89v-493z" />
<glyph unicode="q" horiz-adv-x="1355" d="M109 532q0 246 141 402t371 156q209 0 340 -132v113h213v-1456h-213v487q-133 -123 -340 -122q-229 0 -370.5 154t-141.5 398zM324 532q0 -164 96 -265t256 -101q166 0 285 119v493q-47 53 -123 89t-162 36q-160 0 -256 -102.5t-96 -268.5z" />
<glyph unicode="r" horiz-adv-x="978" d="M45 1038q18 16 80.5 34t128.5 18q186 0 213 -185q90 184 278 185q72 0 124.5 -21.5t70.5 -52.5l-39 -189q-43 66 -186 66q-184 0 -242 -283v-610h-213v786q0 121 -86 121q-57 0 -115 -35z" />
<glyph unicode="s" horiz-adv-x="1069" d="M106 750q0 152 125 246t336 94q98 0 210 -24t175 -54l-57 -187q-168 84 -344 84q-102 0 -167 -37.5t-65 -105.5q0 -53 34 -76.5t120 -44.5l221 -51q137 -35 202 -102.5t65 -182.5q0 -150 -113 -239.5t-313 -89.5q-223 0 -408 92l43 184q184 -98 356 -98q106 0 164 35.5 t58 101.5q0 47 -41 72.5t-127 46.5l-207 49q-135 33 -201 100.5t-66 186.5z" />
<glyph unicode="t" horiz-adv-x="1001" d="M55 903v168h201l25 272h188v-272h418v-168h-418v-532q0 -205 172 -205q125 0 238 82l69 -166q-166 -102 -370 -102q-152 0 -237 90t-85 260v573h-201z" />
<glyph unicode="u" horiz-adv-x="1411" d="M166 451v620h213v-590q0 -154 61.5 -229.5t202.5 -75.5q106 0 181 55.5t112 135.5v704h213v-788q0 -121 84 -121q51 0 115 37l16 -170q-90 -49 -209 -49q-174 0 -211 161q-123 -162 -377 -161q-201 0 -301 126t-100 345z" />
<glyph unicode="v" horiz-adv-x="1386" d="M35 1040q82 49 207 50q221 0 221 -256v-353q0 -150 69.5 -227.5t200.5 -77.5q135 0 220 91t85 253q0 258 -123 551h226q111 -291 110 -565q0 -238 -141 -382t-377 -144q-231 0 -357 124.5t-126 346.5v335q0 123 -86 123q-51 0 -115 -37z" />
<glyph unicode="w" horiz-adv-x="2080" d="M35 1042q111 47 215 48q213 0 213 -250v-359q0 -305 250 -305q127 0 200.5 84t73.5 229v582h213v-594q0 -139 62.5 -220t187.5 -81q137 0 210 97.5t73 250.5q0 248 -123 547h225q111 -291 111 -565q0 -240 -130 -383t-354 -143q-150 0 -238.5 56t-136.5 177 q-100 -233 -399 -233q-217 0 -327.5 122.5t-110.5 348.5v337q0 59 -18.5 90t-67.5 31q-63 0 -115 -39z" />
<glyph unicode="x" horiz-adv-x="1200" d="M66 0v18l385 514l-385 523v16h231l303 -414l305 414h230v-16l-387 -523l387 -514v-18h-234l-301 408l-299 -408h-235z" />
<glyph unicode="y" horiz-adv-x="1200" d="M25 1071h235l361 -838l333 838h217l-469 -1114q-78 -190 -169 -276.5t-250 -86.5q-133 0 -246 74l35 174q106 -66 211 -65q82 0 128 40t87 132l28 69z" />
<glyph unicode="z" horiz-adv-x="1081" d="M109 0v154l598 747h-598v170h866v-153l-596 -748h596v-170h-866z" />
<glyph unicode="{" horiz-adv-x="655" d="M84 465v131q109 0 158 36t49 111q0 84 -58.5 242t-58.5 232q0 109 71.5 173t219.5 64h92v-154h-72q-66 0 -103.5 -36.5t-37.5 -92t58.5 -213t58.5 -241.5q0 -82 -38 -127t-124 -62q86 -16 124 -62t38 -130q0 -82 -58.5 -237.5t-58.5 -213t37 -94.5t104 -37h72v-153h-92 q-147 0 -219 65.5t-72 179.5q0 74 58.5 234t58.5 244q0 74 -48 107.5t-159 33.5z" />
<glyph unicode="|" horiz-adv-x="544" d="M186 -385v1839h172v-1839h-172z" />
<glyph unicode="}" horiz-adv-x="655" d="M98 -246h72q68 0 104.5 37t36.5 94.5t-58 213t-58 237.5q0 84 37.5 130t123.5 62q-86 16 -123.5 61.5t-37.5 127.5q0 84 58 241.5t58 213t-37.5 92t-103.5 36.5h-72v154h90q147 0 220 -64.5t73 -172.5q0 -74 -58 -232t-58 -242q0 -147 204 -147v-131q-109 0 -156.5 -34 t-47.5 -107q0 -84 58 -244t58 -234q0 -115 -72.5 -180t-220.5 -65h-90v153z" />
<glyph unicode="~" horiz-adv-x="1075" d="M135 590q18 76 77.5 130t141.5 54q66 0 132.5 -41t124 -81t102.5 -40q106 0 151 129l78 -96q-23 -88 -83 -140t-140 -52q-78 0 -186.5 81.5t-172.5 81.5q-49 0 -91 -33.5t-58 -95.5z" />
<glyph unicode="&#xa1;" horiz-adv-x="575" d="M139 954.5q0 69.5 39 107.5t109 38q145 0 145 -146q0 -147 -145 -147q-70 0 -109 39t-39 108.5zM180 -324l31 906h154l30 -906h-215z" />
<glyph unicode="&#xa2;" d="M96 532q0 248 155 408t408 160q27 0 68 -4l61 221l132 -35l-60 -213q127 -43 196.5 -142.5t76.5 -238.5l-175 -39q-12 182 -145 248l-207 -739q41 -6 84 -6q176 0 350 131l80 -164q-188 -147 -446 -148q-68 0 -117 9l-72 -259l-129 35l70 252q-166 57 -248 194t-82 330z M297 539q0 -252 180 -344l203 733h-21q-164 0 -263 -108.5t-99 -280.5z" />
<glyph unicode="&#xa3;" d="M70 186q0 90 57 146.5t149 56.5q59 0 105 -22q0 72 -49 276h-201v135h170q-25 127 -25 234q0 178 106.5 289.5t313.5 111.5q129 0 241 -55t171 -115l-68 -180q-2 2 -18 17l-22 21l-21 20q-16 15 -26 22l-27 18q-18 12 -31.5 18.5t-33 14.5t-38 12t-41 7.5t-45.5 3.5 q-121 0 -184.5 -70t-63.5 -184q0 -82 17 -185h438v-135h-414q31 -172 31 -268q0 -43 -2 -64q18 -12 75.5 -55t105.5 -68.5t87 -25.5q84 0 120 62.5t36 187.5v37h170q2 -25 2 -72q0 -186 -71.5 -291.5t-217.5 -105.5q-59 0 -117.5 28.5t-137.5 91t-95 72.5q-39 -92 -95 -142 t-155 -50q-94 0 -145 57t-51 149zM201 182q0 -78 69 -78q80 0 101 140q-31 23 -74 22.5t-69.5 -24t-26.5 -60.5z" />
<glyph unicode="&#xa4;" horiz-adv-x="1171" d="M162 315l108 109q-59 86 -59 194q0 111 59 193l-108 111l123 120l112 -114q84 53 181 53q115 0 192 -59l119 120l123 -120l-121 -119q55 -78 55 -185q0 -102 -53 -186l119 -117l-123 -120l-119 118q-82 -55 -192 -55q-102 0 -181 49l-112 -112zM362 618.5 q0 -92.5 61.5 -155t154.5 -62.5q96 0 156.5 61.5t60.5 155.5q0 92 -60.5 155t-156.5 63q-92 0 -154 -62.5t-62 -155z" />
<glyph unicode="&#xa5;" d="M72 1376v17h219l319 -650l326 650h221v-17l-385 -704h277v-133h-332v-129h332v-134h-332v-276h-213v276h-332v134h332v129h-332v133h277z" />
<glyph unicode="&#xa6;" horiz-adv-x="565" d="M197 326h172v-711h-172v711zM197 768v686h172v-686h-172z" />
<glyph unicode="&#xa7;" horiz-adv-x="1339" d="M150 592q0 178 178 272q-174 61 -174 223q0 141 132 233.5t378 92.5q283 0 501 -88l-57 -182q-80 39 -214 68.5t-251 29.5q-139 0 -211 -38t-72 -95q0 -78 136 -102l325 -56q178 -33 274.5 -121t96.5 -208q0 -182 -186 -275q186 -74 186 -219q0 -147 -143.5 -236.5 t-378.5 -89.5q-272 0 -498 95l49 184q80 -39 212 -71t259 -32q125 0 204 33t79 99q0 47 -47 72.5t-160 45.5l-307 60q-311 61 -311 305zM348 616q0 -68 40 -104.5t142 -56.5l199 -39q117 4 186.5 54t69.5 128q0 147 -229 184l-162 27q-121 -6 -183.5 -64.5t-62.5 -128.5z " />
<glyph unicode="&#xa8;" d="M246 1372q0 115 125 115t125 -115t-125 -115t-125 115zM762 1372q0 115 127 115q123 0 123 -115t-123 -115q-127 0 -127 115z" />
<glyph unicode="&#xa9;" horiz-adv-x="1699" d="M133 694q0 309 205 514t510 205q309 0 514 -204.5t205 -514.5q0 -305 -205 -509.5t-514 -204.5q-305 0 -510 204.5t-205 509.5zM258 694q0 -256 168 -426t422 -170q256 0 425 170t169 426t-169 427t-425 171q-254 0 -422 -171t-168 -427zM498 694q0 166 99 262.5 t257 96.5q133 0 207 -70t78 -192l-135 -33q-6 143 -150 143q-88 0 -139 -55t-51 -152q0 -98 52 -152.5t142 -54.5q109 0 193 76l90 -114q-121 -113 -287 -113q-158 0 -257 96t-99 262z" />
<glyph unicode="&#xaa;" horiz-adv-x="1028" d="M162 901q0 117 94 177.5t260 60.5q33 0 78 -9v31q0 66 -33 93.5t-104 27.5q-115 0 -207 -51l-27 131q119 45 254 45q150 -4 208 -60.5t58 -172.5v-287q0 -74 52 -74q35 0 71 25l8 -117q-76 -33 -141 -33q-94 0 -125 86q-94 -86 -213 -86q-106 0 -169.5 58.5t-63.5 154.5z M199 399v121h632v-121h-632zM303 915q0 -104 137 -104q84 0 154 57v166q-25 6 -74 6q-217 0 -217 -125z" />
<glyph unicode="&#xab;" horiz-adv-x="1105" d="M102 596v45l330 412h17l77 -47l-241 -388l241 -385l-77 -49h-17zM553 596v45l328 412h16l78 -47l-242 -388l242 -385l-78 -49h-16z" />
<glyph unicode="&#xac;" d="M133 657v170h961l-2 -563h-170v393h-789z" />
<glyph unicode="&#xad;" horiz-adv-x="1101" d="M156 535v170h790v-170h-790z" />
<glyph unicode="&#xae;" horiz-adv-x="1699" d="M133 694q0 309 205 514t510 205q309 0 514 -204.5t205 -514.5q0 -305 -205 -509.5t-514 -204.5q-305 0 -510 204.5t-205 509.5zM258 694q0 -256 168 -426t422 -170q256 0 425 170t169 426t-169 427t-425 171q-254 0 -422 -171t-168 -427zM561 346v696h299q123 0 201 -56 t78 -177q0 -86 -52.5 -140.5t-136.5 -72.5q106 -92 156 -109q23 -8 45 -8q39 0 80 19l14 -136q-53 -27 -115 -26q-76 0 -152.5 54t-140 114.5t-96.5 68.5v17h-18v-244h-162zM723 705h154q47 0 76.5 27.5t29.5 74.5q0 49 -29.5 75.5t-76.5 26.5h-154v-204z" />
<glyph unicode="&#xaf;" d="M375 1276v149h506v-149h-506z" />
<glyph unicode="&#xb0;" horiz-adv-x="954" d="M109 1048.5q0 155.5 103 260t263 104.5t264.5 -104.5t104.5 -260t-104.5 -258t-264.5 -102.5t-263 102.5t-103 258zM260 1048.5q0 -92.5 61.5 -155t153.5 -62.5q96 0 156.5 62.5t60.5 155.5q0 94 -60.5 156.5t-156.5 62.5q-92 0 -153.5 -63.5t-61.5 -156z" />
<glyph unicode="&#xb1;" d="M135 137v170h959v-170h-959zM135 762v170h393v393h170v-393h396v-170h-396v-285h-170v285h-393z" />
<glyph unicode="&#xb2;" horiz-adv-x="696" d="M82 1378q2 109 70.5 174.5t189.5 65.5q125 0 188.5 -62.5t63.5 -164.5q0 -133 -143 -236l-156 -113h319v-108h-516v94l267 201q102 76 102 160q0 51 -33 83.5t-92 32.5q-72 0 -109.5 -40t-37.5 -107z" />
<glyph unicode="&#xb3;" horiz-adv-x="681" d="M78 965l33 104q88 -39 194 -39q72 0 117 28.5t45 78.5q0 90 -143 90h-164v104h164q57 0 89.5 25.5t32.5 64.5q0 88 -141 88q-104 0 -196 -41l-29 107q109 43 225 43q127 0 196.5 -48t69.5 -138q0 -53 -33.5 -94.5t-91.5 -53.5q147 -29 148 -166q0 -90 -76 -142t-213 -52 q-104 0 -227 41z" />
<glyph unicode="&#xb4;" d="M438 1221l166 297h215l-196 -297h-185z" />
<glyph unicode="&#xb5;" horiz-adv-x="1341" d="M201 -385v1456h213v-569q0 -168 60.5 -247t203.5 -79q106 0 182 55.5t111 135.5v704h213v-1071h-213v129q-125 -150 -367 -149q-106 0 -190 38v-403h-213z" />
<glyph unicode="&#xb6;" horiz-adv-x="1146" d="M76 811q0 123 74.5 190.5t193.5 69.5h289v-1456h-168v936h-121q-119 0 -193.5 68.5t-74.5 191.5zM815 -385v1456h166v-1456h-166z" />
<glyph unicode="&#xb7;" horiz-adv-x="583" d="M147 608.5q0 143.5 144 143.5q70 0 107.5 -37t37.5 -107q0 -143 -145 -143q-144 0 -144 143.5z" />
<glyph unicode="&#xb8;" d="M426 -381l23 76q72 -23 126 -23q123 0 123 72q0 63 -112 63q-74 0 -127 -14l-6 10l55 197h94l-35 -127q25 6 60 6q82 0 128 -36t46 -95q0 -74 -61.5 -114t-157.5 -40q-84 0 -156 25z" />
<glyph unicode="&#xb9;" horiz-adv-x="542" d="M31 1454l291 152h92v-672h-123v532l-211 -106z" />
<glyph unicode="&#xba;" horiz-adv-x="1042" d="M154 1048.5q0 155.5 103 260t263 104.5t264.5 -104.5t104.5 -260t-104.5 -258t-264.5 -102.5t-263 102.5t-103 258zM205 399v121h633v-121h-633zM291 1049q0 -98 64.5 -165t164.5 -67q102 0 167 65.5t65 166t-64.5 167t-167.5 66.5q-100 0 -164.5 -66.5t-64.5 -166.5z " />
<glyph unicode="&#xbb;" horiz-adv-x="1105" d="M131 1004l78 49h16l328 -412v-45l-328 -412h-16l-76 47l240 387zM580 1004l77 49h19l328 -412v-45l-328 -412h-19l-75 47l241 387z" />
<glyph unicode="&#xbc;" horiz-adv-x="1599" d="M68 1249l290 152h93v-672h-123v533l-211 -107zM285 0v18l755 1375h127v-17l-753 -1376h-129zM883 131v84l344 457l37 -4v4h122v-447h127v-94h-127v-131h-122v131h-381zM1010 225h254v338z" />
<glyph unicode="&#xbd;" horiz-adv-x="1570" d="M68 1241l290 152h93v-672h-123v532l-211 -106zM285 0v18l755 1375h127v-17l-753 -1376h-129zM934 444q2 111 70.5 175.5t189.5 64.5q125 0 188.5 -61.5t63.5 -165.5q0 -133 -143 -236l-156 -112h319v-109h-516v94l267 201q102 76 102 160q0 51 -33 83.5t-92 32.5 q-72 0 -109.5 -39.5t-37.5 -107.5z" />
<glyph unicode="&#xbe;" horiz-adv-x="1712" d="M106 760l33 104q88 -39 195 -39q72 0 117 29t45 78q0 90 -144 90h-164v104h164q57 0 90 26t33 65q0 88 -141 88q-104 0 -197 -41l-28 106q109 43 225 43q127 0 196.5 -48t69.5 -138q0 -53 -34 -94t-91 -54q147 -29 148 -166q0 -90 -76 -142t-213 -52q-105 0 -228 41z M403 0v18l756 1375h127v-17l-754 -1376h-129zM1001 131v84l345 457l36 -4v4h123v-447h127v-94h-127v-131h-123v131h-381zM1128 225h254v338z" />
<glyph unicode="&#xbf;" horiz-adv-x="978" d="M100 14q0 123 48.5 194t136.5 128l123 82q43 31 58 52.5t15 55.5q0 29 -8 56h176q18 -51 19 -107q0 -98 -111 -170l-121 -80q-63 -45 -93 -88t-30 -110q0 -88 60.5 -140.5t154.5 -52.5q98 0 178 42t128 106l65 -164q-145 -162 -401 -162q-178 0 -288 99t-110 259z M412 954.5q0 69.5 38.5 107.5t108.5 38q145 0 146 -146q0 -147 -146 -147q-70 0 -108.5 39t-38.5 108.5z" />
<glyph unicode="&#xc0;" horiz-adv-x="1454" d="M33 0l577 1393h246l553 -1393h-215l-123 307h-694l-127 -307h-217zM432 469h584l-283 711zM459 1839h215l166 -297h-185z" />
<glyph unicode="&#xc1;" horiz-adv-x="1454" d="M33 0l577 1393h246l553 -1393h-215l-123 307h-694l-127 -307h-217zM432 469h584l-283 711zM610 1542l166 297h215l-196 -297h-185z" />
<glyph unicode="&#xc2;" horiz-adv-x="1454" d="M33 0l577 1393h246l553 -1393h-215l-123 307h-694l-127 -307h-217zM408 1542l217 297h211l217 -297h-168l-154 189l-153 -189h-170zM432 469h584l-283 711z" />
<glyph unicode="&#xc3;" horiz-adv-x="1454" d="M33 0l577 1393h246l553 -1393h-215l-123 307h-694l-127 -307h-217zM367 1665q31 66 88 111t124.5 45t166 -64.5t137.5 -64.5q92 0 141 96l70 -86q-78 -160 -211 -160q-63 0 -164 65.5t-137 65.5q-88 0 -146 -96zM432 469h584l-283 711z" />
<glyph unicode="&#xc4;" horiz-adv-x="1454" d="M33 0l577 1393h246l553 -1393h-215l-123 307h-694l-127 -307h-217zM350 1693.5q0 114.5 125 114.5t125 -114.5t-125 -114.5t-125 114.5zM432 469h584l-283 711zM866 1693.5q0 114.5 127 114.5q123 0 123 -114.5t-123 -114.5q-127 0 -127 114.5z" />
<glyph unicode="&#xc5;" horiz-adv-x="1454" d="M33 0l565 1364q-68 61 -68 152q0 82 58.5 141t142.5 59t142.5 -59.5t58.5 -140.5q0 -88 -66 -150l543 -1366h-215l-123 307h-694l-127 -307h-217zM432 469h584l-283 711zM625 1516q0 -45 30.5 -76t75.5 -31q43 0 74 30.5t31 76.5q0 43 -31 73.5t-74 30.5 q-45 0 -75.5 -30.5t-30.5 -73.5z" />
<glyph unicode="&#xc6;" horiz-adv-x="2181" d="M2 0l844 1393h1202v-189h-877v-397h727v-174h-727v-447h877v-186h-1079v307h-549l-191 -307h-227zM504 469h465v770z" />
<glyph unicode="&#xc7;" horiz-adv-x="1531" d="M129 694q0 334 198.5 526.5t514.5 192.5q264 0 413.5 -140t155.5 -386l-197 -41q-4 176 -100 272t-276 96q-221 0 -354.5 -138t-133.5 -382q0 -242 135.5 -379t360.5 -137q131 0 254 53.5t209 133.5l104 -160q-100 -96 -253.5 -160.5t-317.5 -64.5h-31l-29 -107 q25 6 60 6q82 0 128 -36t46 -95q0 -74 -61.5 -114t-157.5 -40q-84 0 -156 25l23 76q72 -23 127 -23q123 0 122 72q0 63 -112 63q-74 0 -127 -14l-6 10l51 185q-266 37 -428 223t-162 483z" />
<glyph unicode="&#xc8;" horiz-adv-x="1429" d="M217 0v1393h1079v-189h-876v-391h727v-188h-727v-437h876v-188h-1079zM481 1839h215l166 -297h-184z" />
<glyph unicode="&#xc9;" horiz-adv-x="1429" d="M217 0v1393h1079v-189h-876v-391h727v-188h-727v-437h876v-188h-1079zM639 1542l166 297h215l-197 -297h-184z" />
<glyph unicode="&#xca;" horiz-adv-x="1429" d="M217 0v1393h1079v-189h-876v-391h727v-188h-727v-437h876v-188h-1079zM432 1542l217 297h211l217 -297h-168l-153 189l-154 -189h-170z" />
<glyph unicode="&#xcb;" horiz-adv-x="1429" d="M217 0v1393h1079v-189h-876v-391h727v-188h-727v-437h876v-188h-1079zM373 1693.5q0 114.5 125 114.5t125 -114.5t-125 -114.5t-125 114.5zM889 1693.5q0 114.5 127 114.5q123 0 123 -114.5t-123 -114.5q-127 0 -127 114.5z" />
<glyph unicode="&#xcc;" horiz-adv-x="645" d="M49 1839h215l166 -297h-184zM217 0v1393h213v-1393h-213z" />
<glyph unicode="&#xcd;" horiz-adv-x="645" d="M217 0v1393h213v-1393h-213zM221 1542l166 297h215l-196 -297h-185z" />
<glyph unicode="&#xce;" horiz-adv-x="645" d="M-2 1542l217 297h211l217 -297h-168l-153 189l-154 -189h-170zM217 0v1393h213v-1393h-213z" />
<glyph unicode="&#xcf;" horiz-adv-x="645" d="M-61 1693.5q0 114.5 124.5 114.5t124.5 -114.5t-124.5 -114.5t-124.5 114.5zM217 0v1393h213v-1393h-213zM455 1693.5q0 114.5 127 114.5q123 0 123 -114.5t-123 -114.5q-127 0 -127 114.5z" />
<glyph unicode="&#xd0;" horiz-adv-x="1634" d="M86 612v170h131v611h567q319 -2 519 -185.5t200 -513.5q0 -328 -199.5 -511t-519.5 -183h-567v612h-131zM430 186h346q229 0 369.5 134.5t140.5 373.5q0 242 -140 376t-370 136h-346v-424h318v-170h-318v-426z" />
<glyph unicode="&#xd1;" horiz-adv-x="1718" d="M217 0v1393h186l885 -1057v1057h213v-1393h-186l-885 1053v-1053h-213zM506 1665q31 66 88 111t124.5 45t166 -64.5t137.5 -64.5q92 0 141 96l70 -86q-78 -160 -211 -160q-63 0 -163.5 65.5t-137.5 65.5q-88 0 -146 -96z" />
<glyph unicode="&#xd2;" horiz-adv-x="1685" d="M125 694q0 309 205 514t510 205q309 0 514 -204.5t205 -514.5q0 -305 -205 -509.5t-514 -204.5q-305 0 -510 204.5t-205 509.5zM336 694q0 -221 143.5 -367.5t362.5 -146.5q221 0 364.5 146.5t143.5 367.5q0 223 -143.5 369.5t-364.5 146.5q-219 0 -362.5 -146.5 t-143.5 -369.5zM559 1839h215l166 -297h-184z" />
<glyph unicode="&#xd3;" horiz-adv-x="1685" d="M125 694q0 309 205 514t510 205q309 0 514 -204.5t205 -514.5q0 -305 -205 -509.5t-514 -204.5q-305 0 -510 204.5t-205 509.5zM336 694q0 -221 143.5 -367.5t362.5 -146.5q221 0 364.5 146.5t143.5 367.5q0 223 -143.5 369.5t-364.5 146.5q-219 0 -362.5 -146.5 t-143.5 -369.5zM741 1542l166 297h215l-196 -297h-185z" />
<glyph unicode="&#xd4;" horiz-adv-x="1685" d="M125 694q0 309 205 514t510 205q309 0 514 -204.5t205 -514.5q0 -305 -205 -509.5t-514 -204.5q-305 0 -510 204.5t-205 509.5zM336 694q0 -221 143.5 -367.5t362.5 -146.5q221 0 364.5 146.5t143.5 367.5q0 223 -143.5 369.5t-364.5 146.5q-219 0 -362.5 -146.5 t-143.5 -369.5zM516 1542l217 297h211l217 -297h-168l-153 189l-154 -189h-170z" />
<glyph unicode="&#xd5;" horiz-adv-x="1685" d="M125 694q0 309 205 514t510 205q309 0 514 -204.5t205 -514.5q0 -305 -205 -509.5t-514 -204.5q-305 0 -510 204.5t-205 509.5zM336 694q0 -221 143.5 -367.5t362.5 -146.5q221 0 364.5 146.5t143.5 367.5q0 223 -143.5 369.5t-364.5 146.5q-219 0 -362.5 -146.5 t-143.5 -369.5zM475 1665q31 66 88.5 111t125 45t165.5 -64.5t137 -64.5q94 0 142 96l69 -86q-78 -160 -211 -160q-63 0 -163.5 65.5t-137.5 65.5q-88 0 -145 -96z" />
<glyph unicode="&#xd6;" horiz-adv-x="1685" d="M125 694q0 309 205 514t510 205q309 0 514 -204.5t205 -514.5q0 -305 -205 -509.5t-514 -204.5q-305 0 -510 204.5t-205 509.5zM336 694q0 -221 143.5 -367.5t362.5 -146.5q221 0 364.5 146.5t143.5 367.5q0 223 -143.5 369.5t-364.5 146.5q-219 0 -362.5 -146.5 t-143.5 -369.5zM457 1693.5q0 114.5 125 114.5t125 -114.5t-125 -114.5t-125 114.5zM973 1693.5q0 114.5 127 114.5q123 0 123 -114.5t-123 -114.5q-127 0 -127 114.5z" />
<glyph unicode="&#xd7;" d="M215 342l279 279l-279 276l121 121l278 -279l277 279l121 -121l-279 -276l279 -279l-121 -121l-277 279l-278 -279z" />
<glyph unicode="&#xd8;" horiz-adv-x="1685" d="M125 694q0 309 205 514t510 205q229 0 411 -121l82 101h156v-17l-137 -168q207 -203 207 -514q0 -305 -205 -509.5t-514 -204.5q-217 0 -394 110l-73 -90h-158v18l125 154q-215 209 -215 522zM332 694q0 -217 139 -362l651 801q-125 80 -282 79q-219 0 -363.5 -147.5 t-144.5 -370.5zM573 250q121 -72 267 -72q221 0 366.5 147.5t145.5 368.5q0 209 -129 355z" />
<glyph unicode="&#xd9;" horiz-adv-x="1628" d="M199 575v818h213v-803q0 -193 100 -303.5t299 -110.5q201 0 303.5 113.5t102.5 302.5v801h213v-818q0 -254 -163 -426t-456 -172q-295 0 -453.5 164t-158.5 434zM530 1839h215l166 -297h-184z" />
<glyph unicode="&#xda;" horiz-adv-x="1628" d="M199 575v818h213v-803q0 -193 100 -303.5t299 -110.5q201 0 303.5 113.5t102.5 302.5v801h213v-818q0 -254 -163 -426t-456 -172q-295 0 -453.5 164t-158.5 434zM713 1542l166 297h215l-197 -297h-184z" />
<glyph unicode="&#xdb;" horiz-adv-x="1628" d="M199 575v818h213v-803q0 -193 100 -303.5t299 -110.5q201 0 303.5 113.5t102.5 302.5v801h213v-818q0 -254 -163 -426t-456 -172q-295 0 -453.5 164t-158.5 434zM489 1542l218 297h211l217 -297h-168l-154 189l-154 -189h-170z" />
<glyph unicode="&#xdc;" horiz-adv-x="1628" d="M199 575v818h213v-803q0 -193 100 -303.5t299 -110.5q201 0 303.5 113.5t102.5 302.5v801h213v-818q0 -254 -163 -426t-456 -172q-295 0 -453.5 164t-158.5 434zM430 1693.5q0 114.5 125 114.5t125 -114.5t-125 -114.5t-125 114.5zM946 1693.5q0 114.5 127 114.5 q123 0 123 -114.5t-123 -114.5q-127 0 -127 114.5z" />
<glyph unicode="&#xdd;" horiz-adv-x="1384" d="M23 1376v17h237l432 -627l432 627h238v-17l-563 -805v-571h-213v569zM590 1542l166 297h215l-197 -297h-184z" />
<glyph unicode="&#xde;" horiz-adv-x="1437" d="M217 0v1393h213v-209h418q217 0 356 -117t139 -356q0 -221 -142 -345t-353 -124h-418v-242h-213zM430 430h389q135 0 221 71.5t86 209.5q0 145 -85 215.5t-222 70.5h-389v-567z" />
<glyph unicode="&#xdf;" horiz-adv-x="1382" d="M180 0v907q0 274 148.5 421t378.5 147q215 0 339.5 -122t124.5 -288q0 -66 -25.5 -125t-54.5 -94l-56 -66q-26 -31 -25 -47q0 -14 43 -51l94 -80q51 -43 94 -117.5t43 -156.5q0 -168 -108.5 -258t-286.5 -90q-166 0 -309 61l34 174q98 -53 215 -53q102 0 164 49t62 131 q0 61 -44 120.5t-96.5 97.5t-96.5 79t-44 72q0 33 28.5 70.5t61.5 70.5t61.5 87t28.5 114q0 102 -76.5 168.5t-189.5 66.5q-137 0 -216 -99t-79 -265v-924h-213z" />
<glyph unicode="&#xe0;" horiz-adv-x="1435" d="M109 532q0 246 141 402t371 156q213 0 340 -127v108h213v-788q0 -121 86 -121q55 0 114 37l15 -170q-90 -49 -207 -49q-170 0 -207 157q-137 -156 -354 -155q-229 0 -370.5 153t-141.5 397zM324 532q0 -162 97 -264t255 -102q168 0 285 121v495q-45 49 -123 85t-162 36 q-160 0 -256 -102.5t-96 -268.5zM446 1518h216l165 -297h-184z" />
<glyph unicode="&#xe1;" horiz-adv-x="1435" d="M109 532q0 246 141 402t371 156q213 0 340 -127v108h213v-788q0 -121 86 -121q55 0 114 37l15 -170q-90 -49 -207 -49q-170 0 -207 157q-137 -156 -354 -155q-229 0 -370.5 153t-141.5 397zM324 532q0 -162 97 -264t255 -102q168 0 285 121v495q-45 49 -123 85t-162 36 q-160 0 -256 -102.5t-96 -268.5zM604 1221l166 297h215l-197 -297h-184z" />
<glyph unicode="&#xe2;" horiz-adv-x="1435" d="M109 532q0 246 141 402t371 156q213 0 340 -127v108h213v-788q0 -121 86 -121q55 0 114 37l15 -170q-90 -49 -207 -49q-170 0 -207 157q-137 -156 -354 -155q-229 0 -370.5 153t-141.5 397zM324 532q0 -162 97 -264t255 -102q168 0 285 121v495q-45 49 -123 85t-162 36 q-160 0 -256 -102.5t-96 -268.5zM373 1221l217 297h211l217 -297h-168l-154 188l-153 -188h-170z" />
<glyph unicode="&#xe3;" horiz-adv-x="1435" d="M109 532q0 246 141 402t371 156q213 0 340 -127v108h213v-788q0 -121 86 -121q55 0 114 37l15 -170q-90 -49 -207 -49q-170 0 -207 157q-137 -156 -354 -155q-229 0 -370.5 153t-141.5 397zM324 532q0 -162 97 -264t255 -102q168 0 285 121v495q-45 49 -123 85t-162 36 q-160 0 -256 -102.5t-96 -268.5zM340 1343q31 66 88 111t125 45t166 -64.5t137 -64.5q94 0 141 96l70 -86q-78 -160 -211 -159q-63 0 -163.5 65.5t-137.5 65.5q-88 0 -145 -97z" />
<glyph unicode="&#xe4;" horiz-adv-x="1435" d="M109 532q0 246 141 402t371 156q213 0 340 -127v108h213v-788q0 -121 86 -121q55 0 114 37l15 -170q-90 -49 -207 -49q-170 0 -207 157q-137 -156 -354 -155q-229 0 -370.5 153t-141.5 397zM324 532q0 -162 97 -264t255 -102q168 0 285 121v495q-45 49 -123 85t-162 36 q-160 0 -256 -102.5t-96 -268.5zM342 1372q0 115 125 115t125 -115t-125 -115t-125 115zM858 1372q0 115 127 115q123 0 123 -115t-123 -115q-127 0 -127 115z" />
<glyph unicode="&#xe5;" horiz-adv-x="1435" d="M109 532q0 246 141 402t371 156q213 0 340 -127v108h213v-788q0 -121 86 -121q55 0 114 37l15 -170q-90 -49 -207 -49q-170 0 -207 157q-137 -156 -354 -155q-229 0 -370.5 153t-141.5 397zM324 532q0 -162 97 -264t255 -102q168 0 285 121v495q-45 49 -123 85t-162 36 q-160 0 -256 -102.5t-96 -268.5zM508 1372q0 82 59.5 141.5t141.5 59.5t141 -59.5t59 -141.5t-59 -141.5t-141 -59.5t-141.5 59.5t-59.5 141.5zM602 1372q0 -45 31 -75.5t76 -30.5q43 0 73.5 30.5t30.5 75.5q0 43 -30.5 74t-73.5 31q-45 0 -76 -31t-31 -74z" />
<glyph unicode="&#xe6;" horiz-adv-x="1886" d="M86 301q0 180 140.5 280.5t389.5 100.5q115 0 179 -14q0 137 -45 192t-172 55q-203 0 -355 -75l-39 188q178 72 416 72q166 0 238.5 -59.5t101.5 -168.5q51 94 146.5 161t230.5 67q229 0 344 -126t115 -321q0 -125 -21 -188h-743q6 -154 82.5 -233.5t253 -79.5t329.5 118 l84 -153q-178 -145 -432 -146q-299 0 -411 191q-207 -193 -447 -193q-176 0 -280.5 91t-104.5 241zM299 322q0 -80 59.5 -125t159.5 -45q145 0 275 118v228q-84 18 -183 18q-311 -10 -311 -194zM1028 631h549q4 33 4 45q0 109 -68.5 177.5t-197.5 68.5q-133 0 -208 -85 t-79 -206z" />
<glyph unicode="&#xe7;" horiz-adv-x="1241" d="M109 532q0 248 154.5 408t408.5 160q221 0 343 -111.5t130 -300.5l-191 -45q-16 268 -280 268q-160 0 -253 -104.5t-93 -267.5q0 -170 94 -274.5t289 -104.5q172 0 338 127l84 -168q-188 -147 -447 -148h-29l-26 -98q25 6 59 6q82 0 128 -36t46 -95q0 -74 -61.5 -114 t-157.5 -40q-84 0 -156 25l23 76q72 -23 127 -23q123 0 123 72q0 63 -113 63q-74 0 -127 -14l-6 10l49 177q-229 31 -342.5 178t-113.5 374z" />
<glyph unicode="&#xe8;" horiz-adv-x="1251" d="M104 532q0 242 155 405t407 163q233 0 355 -126t122 -321q0 -117 -23 -188h-796q16 -145 107 -229t259 -84q197 0 354 118l84 -153q-178 -145 -444 -146q-289 0 -434.5 156.5t-145.5 404.5zM328 631h606q4 33 4 57q0 100 -69.5 167t-206.5 67q-143 0 -232.5 -84 t-101.5 -207zM418 1518h215l166 -297h-185z" />
<glyph unicode="&#xe9;" horiz-adv-x="1251" d="M104 532q0 242 155 405t407 163q233 0 355 -126t122 -321q0 -117 -23 -188h-796q16 -145 107 -229t259 -84q197 0 354 118l84 -153q-178 -145 -444 -146q-289 0 -434.5 156.5t-145.5 404.5zM328 631h606q4 33 4 57q0 100 -69.5 167t-206.5 67q-143 0 -232.5 -84 t-101.5 -207zM559 1221l166 297h215l-197 -297h-184z" />
<glyph unicode="&#xea;" horiz-adv-x="1251" d="M104 532q0 242 155 405t407 163q233 0 355 -126t122 -321q0 -117 -23 -188h-796q16 -145 107 -229t259 -84q197 0 354 118l84 -153q-178 -145 -444 -146q-289 0 -434.5 156.5t-145.5 404.5zM328 631h606q4 33 4 57q0 100 -69.5 167t-206.5 67q-143 0 -232.5 -84 t-101.5 -207zM352 1221l217 297h211l217 -297h-168l-153 188l-154 -188h-170z" />
<glyph unicode="&#xeb;" horiz-adv-x="1251" d="M104 532q0 242 155 405t407 163q233 0 355 -126t122 -321q0 -117 -23 -188h-796q16 -145 107 -229t259 -84q197 0 354 118l84 -153q-178 -145 -444 -146q-289 0 -434.5 156.5t-145.5 404.5zM291 1372q0 115 125 115t125 -115t-125 -115t-125 115zM328 631h606q4 33 4 57 q0 100 -69.5 167t-206.5 67q-143 0 -232.5 -84t-101.5 -207zM807 1372q0 115 127 115q123 0 123 -115t-123 -115q-127 0 -127 115z" />
<glyph unicode="&#xec;" horiz-adv-x="659" d="M31 1518h215l166 -297h-185zM178 236v835h213v-788q0 -121 86 -121q61 0 113 37l16 -170q-20 -16 -81.5 -32.5t-127.5 -16.5q-219 0 -219 256z" />
<glyph unicode="&#xed;" horiz-adv-x="659" d="M178 236v835h213v-788q0 -121 86 -121q61 0 113 37l16 -170q-20 -16 -81.5 -32.5t-127.5 -16.5q-219 0 -219 256zM182 1221l166 297h215l-196 -297h-185z" />
<glyph unicode="&#xee;" horiz-adv-x="659" d="M-39 1221l217 297h211l217 -297h-168l-153 188l-154 -188h-170zM178 236v835h213v-788q0 -121 86 -121q61 0 113 37l16 -170q-20 -16 -81.5 -32.5t-127.5 -16.5q-219 0 -219 256z" />
<glyph unicode="&#xef;" horiz-adv-x="659" d="M-96 1372q0 115 125 115t125 -115t-125 -115t-125 115zM178 236v835h213v-788q0 -121 86 -121q61 0 113 37l16 -170q-20 -16 -81.5 -32.5t-127.5 -16.5q-219 0 -219 256zM420 1372q0 115 127 115q123 0 123 -115t-123 -115q-127 0 -127 115z" />
<glyph unicode="&#xf0;" horiz-adv-x="1277" d="M98 473q0 205 118 330t321 125q227 0 391 -193q-10 264 -203 449l-123 -127l-61 55l121 125q-96 70 -187 100l84 138q119 -27 232 -103l112 119l64 -53l-111 -115q131 -109 209 -269.5t78 -355.5q0 -330 -147.5 -524t-415.5 -194q-209 0 -345.5 136t-136.5 357zM309 471 q0 -125 78 -210t201 -85q141 0 224 100.5t108 278.5q-143 197 -334 197q-127 0 -202 -73t-75 -208z" />
<glyph unicode="&#xf1;" horiz-adv-x="1406" d="M180 0v1071h213v-164q125 182 369 183q199 0 301 -131.5t102 -342.5v-333q0 -121 86 -121q53 0 113 37l14 -170q-90 -49 -207 -49q-219 0 -219 256v348q0 141 -67.5 225t-196.5 84q-106 0 -185 -67.5t-110 -163.5v-662h-213zM326 1343q31 66 88 111t124.5 45t166 -64.5 t137.5 -64.5q92 0 141 96l70 -86q-78 -160 -211 -159q-63 0 -163.5 65.5t-137.5 65.5q-88 0 -146 -97z" />
<glyph unicode="&#xf2;" horiz-adv-x="1351" d="M102 532q0 246 162 407t410 161q250 0 411.5 -161t161.5 -407q0 -242 -161.5 -401.5t-411.5 -159.5q-248 0 -410 159.5t-162 401.5zM309 532q0 -156 102.5 -260t262.5 -104q162 0 265 103.5t103 260.5q0 160 -103 265.5t-265 105.5q-160 0 -262.5 -105.5t-102.5 -265.5z M393 1518h215l166 -297h-184z" />
<glyph unicode="&#xf3;" horiz-adv-x="1351" d="M102 532q0 246 162 407t410 161q250 0 411.5 -161t161.5 -407q0 -242 -161.5 -401.5t-411.5 -159.5q-248 0 -410 159.5t-162 401.5zM309 532q0 -156 102.5 -260t262.5 -104q162 0 265 103.5t103 260.5q0 160 -103 265.5t-265 105.5q-160 0 -262.5 -105.5t-102.5 -265.5z M573 1221l166 297h215l-196 -297h-185z" />
<glyph unicode="&#xf4;" horiz-adv-x="1351" d="M102 532q0 246 162 407t410 161q250 0 411.5 -161t161.5 -407q0 -242 -161.5 -401.5t-411.5 -159.5q-248 0 -410 159.5t-162 401.5zM309 532q0 -156 102.5 -260t262.5 -104q162 0 265 103.5t103 260.5q0 160 -103 265.5t-265 105.5q-160 0 -262.5 -105.5t-102.5 -265.5z M350 1221l217 297h211l217 -297h-168l-153 188l-154 -188h-170z" />
<glyph unicode="&#xf5;" horiz-adv-x="1351" d="M102 532q0 246 162 407t410 161q250 0 411.5 -161t161.5 -407q0 -242 -161.5 -401.5t-411.5 -159.5q-248 0 -410 159.5t-162 401.5zM309 532q0 -156 102.5 -260t262.5 -104q162 0 265 103.5t103 260.5q0 160 -103 265.5t-265 105.5q-160 0 -262.5 -105.5t-102.5 -265.5z M309 1343q31 66 88.5 111t125 45t165.5 -64.5t137 -64.5q92 0 142 96l69 -86q-78 -160 -211 -159q-63 0 -163.5 65.5t-137.5 65.5q-88 0 -145 -97z" />
<glyph unicode="&#xf6;" horiz-adv-x="1351" d="M102 532q0 246 162 407t410 161q250 0 411.5 -161t161.5 -407q0 -242 -161.5 -401.5t-411.5 -159.5q-248 0 -410 159.5t-162 401.5zM291 1372q0 115 125 115t125 -115t-125 -115t-125 115zM309 532q0 -156 102.5 -260t262.5 -104q162 0 265 103.5t103 260.5 q0 160 -103 265.5t-265 105.5q-160 0 -262.5 -105.5t-102.5 -265.5zM807 1372q0 115 127 115q123 0 123 -115t-123 -115q-127 0 -127 115z" />
<glyph unicode="&#xf7;" d="M135 535v170h959v-170h-959zM473 240q0 63 34 98t97.5 35t98 -35t34.5 -98.5t-34.5 -98.5t-98.5 -35q-131 1 -131 134zM473 997q0 63 34 98t97.5 35t98 -34.5t34.5 -98t-34.5 -98.5t-98.5 -35q-131 0 -131 133z" />
<glyph unicode="&#xf8;" horiz-adv-x="1351" d="M102 532q0 246 162 407t410 161q197 0 340 -103l61 74h113v-18l-98 -119q158 -158 157 -402q0 -242 -161.5 -401.5t-411.5 -159.5q-172 0 -307 80l-43 -51h-117v18l78 95q-183 159 -183 419zM309 532q0 -164 105 -264l473 574q-94 61 -213 61q-160 0 -262.5 -105.5 t-102.5 -265.5zM494 209q76 -43 180 -43q162 0 265 104.5t103 261.5q0 141 -84 242z" />
<glyph unicode="&#xf9;" horiz-adv-x="1411" d="M166 451v620h213v-590q0 -154 61.5 -229.5t202.5 -75.5q106 0 181 55.5t112 135.5v704h213v-788q0 -121 84 -121q51 0 115 37l16 -170q-90 -49 -209 -49q-174 0 -211 161q-123 -162 -377 -161q-201 0 -301 126t-100 345zM379 1518h215l166 -297h-185z" />
<glyph unicode="&#xfa;" horiz-adv-x="1411" d="M166 451v620h213v-590q0 -154 61.5 -229.5t202.5 -75.5q106 0 181 55.5t112 135.5v704h213v-788q0 -121 84 -121q51 0 115 37l16 -170q-90 -49 -209 -49q-174 0 -211 161q-123 -162 -377 -161q-201 0 -301 126t-100 345zM571 1221l166 297h215l-196 -297h-185z" />
<glyph unicode="&#xfb;" horiz-adv-x="1411" d="M166 451v620h213v-590q0 -154 61.5 -229.5t202.5 -75.5q106 0 181 55.5t112 135.5v704h213v-788q0 -121 84 -121q51 0 115 37l16 -170q-90 -49 -209 -49q-174 0 -211 161q-123 -162 -377 -161q-201 0 -301 126t-100 345zM342 1221l217 297h211l217 -297h-168l-153 188 l-154 -188h-170z" />
<glyph unicode="&#xfc;" horiz-adv-x="1411" d="M166 451v620h213v-590q0 -154 61.5 -229.5t202.5 -75.5q106 0 181 55.5t112 135.5v704h213v-788q0 -121 84 -121q51 0 115 37l16 -170q-90 -49 -209 -49q-174 0 -211 161q-123 -162 -377 -161q-201 0 -301 126t-100 345zM283 1372q0 115 124.5 115t124.5 -115 t-124.5 -115t-124.5 115zM799 1372q0 115 127 115q123 0 123 -115t-123 -115q-127 0 -127 115z" />
<glyph unicode="&#xfd;" horiz-adv-x="1200" d="M25 1071h235l361 -838l333 838h217l-469 -1114q-78 -190 -169 -276.5t-250 -86.5q-133 0 -246 74l35 174q106 -66 211 -65q82 0 128 40t87 132l28 69zM506 1221l166 297h215l-197 -297h-184z" />
<glyph unicode="&#xfe;" horiz-adv-x="1357" d="M180 -385v1839h213v-493q133 129 344 129q229 0 371.5 -155t142.5 -398.5t-142 -400t-372 -156.5q-215 0 -344 135v-500h-213zM393 287q47 -49 125 -85t162 -36q160 0 256 102.5t96 268.5q0 164 -96 265t-256 101q-164 0 -287 -127v-489z" />
<glyph unicode="&#xff;" horiz-adv-x="1200" d="M25 1071h235l361 -838l333 838h217l-469 -1114q-78 -190 -169 -276.5t-250 -86.5q-133 0 -246 74l35 174q106 -66 211 -65q82 0 128 40t87 132l28 69zM231 1372q0 115 125 115t125 -115t-125 -115t-125 115zM748 1372q0 115 126 115q123 0 123 -115t-123 -115 q-126 0 -126 115z" />
<glyph unicode="&#x152;" horiz-adv-x="2439" d="M125 692q0 309 202.5 514t508.5 205q219 0 391 -127v109h1079v-189h-874v-397h725v-174h-725v-447h874v-186h-1079v106q-178 -129 -391 -129q-305 0 -508 205t-203 510zM332 692q0 -221 146.5 -367.5t371.5 -146.5q227 0 377 150v733q-152 152 -381 151 q-221 0 -367.5 -148.5t-146.5 -371.5z" />
<glyph unicode="&#x153;" horiz-adv-x="2234" d="M102 532q0 246 162 407t410 161q170 0 301 -83t190 -224q57 139 184.5 223t299.5 84q231 0 353 -128t122 -321q0 -119 -19 -186h-802q20 -313 383 -313q186 0 339 118l84 -153q-178 -145 -444 -146q-197 0 -322.5 79t-181.5 214q-61 -135 -190 -214t-297 -79 q-248 0 -410 159.5t-162 401.5zM309 532q0 -158 102.5 -262t262.5 -104q162 0 265 104.5t103 261.5q0 160 -103 265.5t-265 105.5q-160 0 -262.5 -105.5t-102.5 -265.5zM1303 631h620q4 18 4 55q0 106 -80 171t-211 65q-141 0 -231 -81t-102 -210z" />
<glyph unicode="&#x178;" horiz-adv-x="1384" d="M23 1376v17h237l432 -627l432 627h238v-17l-563 -805v-571h-213v569zM307 1693.5q0 114.5 125 114.5t125 -114.5t-125 -114.5t-125 114.5zM823 1693.5q0 114.5 127 114.5q123 0 123 -114.5t-123 -114.5q-127 0 -127 114.5z" />
<glyph unicode="&#x2c6;" d="M305 1221l217 297h211l217 -297h-168l-153 188l-154 -188h-170z" />
<glyph unicode="&#x2dc;" d="M264 1343q31 66 88.5 111t125 45t165.5 -64.5t137 -64.5q92 0 142 96l69 -86q-78 -160 -211 -159q-63 0 -163.5 65.5t-137.5 65.5q-88 0 -145 -97z" />
<glyph unicode="&#x2013;" horiz-adv-x="1294" d="M156 535v170h983v-170h-983z" />
<glyph unicode="&#x2014;" horiz-adv-x="1785" d="M156 535v170h1474v-170h-1474z" />
<glyph unicode="&#x2018;" horiz-adv-x="546" d="M125 952q0 94 49 236.5t98 224.5l123 -51l-92 -275q113 -23 113 -135q0 -72 -38 -110.5t-108 -38.5q-68 0 -106.5 40.5t-38.5 108.5z" />
<glyph unicode="&#x2019;" horiz-adv-x="538" d="M137 1260q0 150 144 149q70 0 108.5 -41t38.5 -108q0 -92 -51 -233.5t-101 -227.5l-122 49l94 276q-111 23 -111 136z" />
<glyph unicode="&#x201a;" horiz-adv-x="565" d="M137 111q0 150 144 149q70 0 108.5 -41t38.5 -108q0 -92 -51 -233.5t-101 -227.5l-122 49l94 276q-111 21 -111 136z" />
<glyph unicode="&#x201c;" horiz-adv-x="929" d="M127 985q0 86 46 219t91 209l109 -43l-88 -264q102 -18 102 -121q0 -66 -34 -101.5t-95 -35.5t-96 38t-35 99zM535 985q0 86 47 220t92 208l106 -43l-86 -264q102 -18 103 -121q0 -66 -34 -101.5t-95.5 -35.5t-97 38t-35.5 99z" />
<glyph unicode="&#x201d;" horiz-adv-x="919" d="M135 1276q0 66 34 100.5t97 34.5q59 0 95 -38t36 -97q0 -86 -46 -220t-91 -210l-108 45l86 262q-103 19 -103 123zM545 1276q0 63 33.5 99t95.5 36q63 0 98 -38t35 -97q0 -88 -47 -222t-92 -208l-107 45l86 262q-102 19 -102 123z" />
<glyph unicode="&#x201e;" horiz-adv-x="946" d="M139 78q0 137 129 137q61 0 96 -38t35 -99q0 -86 -46 -219t-91 -209l-108 43l88 264q-103 15 -103 121zM547 78q0 137 131 137q61 0 96 -38t35 -99q0 -86 -47 -220t-92 -208l-107 43l86 264q-102 17 -102 121z" />
<glyph unicode="&#x2022;" horiz-adv-x="698" d="M139 618.5q0 104.5 54.5 161t155 56.5t155.5 -56.5t55 -161t-55 -161t-155.5 -56.5t-155 56.5t-54.5 161z" />
<glyph unicode="&#x2026;" horiz-adv-x="1542" d="M139 104q0 66 35 102t100.5 36t102.5 -36t37 -101.5t-37 -100.5t-103 -35q-135 0 -135 135zM635 104q0 66 35 102t100.5 36t102 -36t36.5 -101.5t-36.5 -100.5t-102.5 -35q-135 0 -135 135zM1130 104q0 66 35 102t100.5 36t102.5 -36t37 -101.5t-37 -100.5t-102 -35 q-136 0 -136 135z" />
<glyph unicode="&#x2039;" horiz-adv-x="657" d="M102 596v45l330 412h17l77 -47l-241 -388l241 -385l-77 -49h-17z" />
<glyph unicode="&#x203a;" horiz-adv-x="657" d="M131 1004l78 49h16l328 -412v-45l-328 -412h-16l-76 47l240 387z" />
<glyph unicode="&#x20ac;" d="M80 487v134h100q-2 23 -2 73v51h-98v134h110q39 258 183.5 396t367.5 138q219 0 396 -166l-76 -160q-135 129 -303 130q-135 0 -226.5 -84t-121.5 -254h555l-62 -134h-508v-51q0 -51 2 -73h453l-53 -134h-383q70 -311 338 -311q168 0 317 113l80 -176 q-178 -133 -414 -133q-215 0 -356 131t-184 376h-115z" />
<glyph unicode="&#x2122;" horiz-adv-x="1742" d="M150 1237v121h534v-121h-203v-506h-121v506h-210zM844 731v627h102l248 -295l246 295h104v-627h-121v438l-217 -266h-24l-217 266v-438h-121z" />
<glyph unicode="&#xe000;" horiz-adv-x="1070" d="M0 1070h1070v-1070h-1070v1070z" />
<glyph unicode="&#xfb01;" horiz-adv-x="1611" d="M78 844v170h211v88q0 166 88 269.5t264 103.5q154 0 274 -84l-53 -181q-94 76 -198 76q-162 0 -162 -184v-88h362v-170h-362v-844h-213v844h-211zM1106 1376q0 119 133 119q131 0 131 -119q0 -121 -131 -121q-133 0 -133 121zM1130 236v835h213v-788q0 -121 87 -121 q61 0 112 37l17 -170q-20 -16 -82 -32.5t-127 -16.5q-220 0 -220 256z" />
<glyph unicode="&#xfb02;" horiz-adv-x="1613" d="M78 844v170h211v88q0 166 88 269.5t264 103.5q154 0 274 -84l-53 -181q-94 76 -198 76q-162 0 -162 -184v-88h362v-170h-362v-844h-213v844h-211zM1116 246v1208h213v-1159q0 -133 109 -133q57 0 125 37l14 -170q-98 -49 -217 -49q-244 0 -244 266z" />
<glyph unicode="&#xfb03;" horiz-adv-x="2506" d="M78 844v170h211v88q0 166 88 269.5t264 103.5q154 0 274 -84l-53 -181q-94 76 -198 76q-162 0 -162 -184v-88h362v-170h-362v-844h-213v844h-211zM1001 844v170h211v88q0 166 88.5 269.5t264.5 103.5q154 0 274 -84l-53 -181q-94 76 -199 76q-162 0 -162 -184v-88h363 v-170h-363v-844h-213v844h-211zM2001 1376q0 119 133 119q131 0 131 -119q0 -121 -131 -121q-133 0 -133 121zM2025 236v835h213v-788q0 -121 86 -121q61 0 113 37l17 -170q-20 -16 -82 -32.5t-127 -16.5q-220 0 -220 256z" />
<glyph unicode="&#xfb04;" horiz-adv-x="2516" d="M78 844v170h211v88q0 166 88 269.5t264 103.5q154 0 274 -84l-53 -181q-94 76 -198 76q-162 0 -162 -184v-88h362v-170h-362v-844h-213v844h-211zM1001 844v170h211v88q0 166 88.5 269.5t264.5 103.5q154 0 274 -84l-53 -181q-94 76 -199 76q-162 0 -162 -184v-88h363 v-170h-363v-844h-213v844h-211zM2019 246v1208h213v-1159q0 -133 109 -133q57 0 125 37l14 -170q-98 -49 -217 -49q-244 0 -244 266z" />
</font>
</defs>
</svg>
